<?xml version="1.0" encoding="UTF-8"?>
<svg width="240px" height="324px" viewBox="0 0 240 324" version="1.1" xmlns="http://www.w3.org/2000/svg" xmlns:xlink="http://www.w3.org/1999/xlink">
    <!-- Generator: Sketch 62 (91390) - https://sketch.com -->
    <title>peep-64</title>
    <desc>Created with Sketch.</desc>
    <g id="Introduction" stroke="none" stroke-width="1" fill="none" fill-rule="evenodd">
        <g id="variations" transform="translate(-2286.000000, -110.000000)">
            <g id="images" transform="translate(126.000000, 110.000000)">
                <g id="a-person/bust" transform="translate(2160.000000, 0.000000)">
                    <g id="body/Paper" transform="translate(31.056338, 135.052838)" fill-rule="evenodd">
                        <path d="M150.022562,41.5444811 C148.181113,34.4008449 146.487633,31.3720117 143.21645,28.8890928 C140.156716,26.5666686 135.690221,24.616104 129.173087,23.1912768 C122.385153,22.0042412 122.192712,18.475584 120.490732,12.8041914 C119.994215,11.0992146 117.533743,10.6455451 116.471812,11.8744515 C116.322113,11.7128304 116.166034,11.5648173 116.004427,11.4310403 C116.149023,10.6179104 114.965332,8.28732303 115.004881,7.50952316 C115.417681,-0.609005215 112.762711,-4.68584742 106.136171,-6.20135908 C104.695101,-6.53109121 94.9065863,-6.72516212 93.5014529,-6.33660159 C87.3586723,-4.63790541 81.3115461,0.755465435 82.2369609,7.25254916 C80.30873,9.77295874 78.4215729,11.31129 75.4467217,12.1233731 C68.8263488,12.9641377 62.2066138,13.7117399 55.5845398,14.3517342 C42.6219288,16.385187 30.4684177,23.2478023 22.1617996,33.2563762 C21.3956532,34.1802542 21.1742936,35.4342831 21.8504928,36.4195018 C21.3208035,38.6886869 18.3391477,44.1930152 20.6852187,45.7487228 C16.8272684,54.977454 7.95072329,72.8155543 7.93257791,77.9116861 C7.86411145,99.3206175 10.1762752,127.187115 31.2981439,139.034652 C32.1438182,139.866205 32.264811,140.786315 32.6309793,142.023595 C33.5595837,145.921134 36.932074,148.706647 40.6233136,148.479289 C58.8071994,148.883469 76.4194747,146.664642 94.6037662,146.557151 C102.622991,146.509747 112.266923,147.706921 119.233171,148.504559 C126.19942,149.302197 133.231558,148.596675 139.916787,146.557151 C140.480499,147.44481 141.620256,147.961914 142.776386,147.706921 C149.70679,146.329792 155.311163,142.058139 160.192343,137.389341 C161.684021,134.675279 167.509329,126.942381 165.193878,124.25072 C167.29286,115.375587 167.183775,105.839315 163.453835,97.3881237 C163.982573,95.8389543 163.018842,94.1364726 163.453835,92.5367037 C163.768621,91.3790161 164.574809,90.9001986 164.980599,89.753827 C165.551618,88.1406772 164.930621,85.9765462 164.287719,84.3304236 C164.024256,83.5099664 164.772636,82.6269138 164.980599,81.7897082 C165.967042,77.8410875 163.708257,78.1891262 162.07985,75.5493849 C162.104091,75.5412202 162.527569,73.6567356 162.525656,73.6661565 C162.774982,72.320747 162.150366,70.5970822 161.605521,69.4740158 C161.237274,68.7149621 160.44844,68.2399026 159.664657,68.3269857 C160.453982,65.6468392 161.452242,63.4167123 162.525656,60.8345433 C164.424117,56.2829839 166.827176,51.9244485 169.553236,47.8045764 C170.669603,46.117604 169.17027,44.1630776 167.363669,44.0481424 C161.516248,43.6765395 155.732831,42.8345188 150.022562,41.5444811 Z" id="ðŸŽ¨-Background" fill="#FFFFFF"></path>
                        <path d="M132.956958,75.9647272 C130.618225,75.0474669 128.099915,74.5404376 125.56893,74.3436705 C126.931606,74.1048446 128.298296,73.8744728 129.675972,73.7561166 C130.637239,73.67369 131.528577,73.682144 132.251113,74.4115139 C132.733014,74.8974082 132.95907,75.5230051 133.275972,76.0978779 C133.172451,76.0513808 133.064704,76.0069973 132.956958,75.9647272 Z M158.059775,67.3881323 C154.229493,67.5827859 150.394986,68.4937057 146.930197,70.1441401 C145.512592,70.8204611 144.228085,71.7968994 143.852028,73.4031616 C143.661887,74.2234121 143.708366,75.0709268 143.809563,75.89942 C143.885831,76.526919 143.904845,77.3279366 144.449915,77.7527507 C144.542873,77.8246098 144.642169,77.8795609 144.74569,77.9197174 C143.467521,78.4967037 142.250408,79.190144 141.168718,79.9042967 C140.180197,80.5573691 139.164,81.5633965 138.707662,82.6983476 C138.669634,82.5694239 138.631606,82.4491656 138.593577,82.334825 C137.816113,80.0355452 136.618225,78.1524141 134.731606,76.8862145 C135.065408,76.7363671 135.29569,76.3810873 135.187944,75.8909659 C134.740056,73.8427703 132.849,72.0632008 130.713296,72.190011 C128.374563,72.3273886 125.862592,73.1791303 123.747592,74.2549033 C122.976676,74.2379953 122.207451,74.2485628 121.447099,74.2823789 C121.316113,74.2866059 121.322451,74.4643515 121.447099,74.4789346 C122.064,74.5573456 122.680901,74.6437879 123.297803,74.745236 C124.764,74.9800462 126.225972,75.2778387 127.656042,75.6477018 C129.371746,76.0917487 131.146394,76.5374865 132.749915,77.3131421 C135.859563,78.820281 137.784423,82.7598505 137.389352,86.1877409 C137.323859,86.7499327 137.106254,88.449189 136.326465,88.2737683 C135.667521,88.1258231 135.405549,86.7499327 135.175268,86.2405785 C134.558366,84.8879366 133.447099,84.0044924 132.114,83.406371 C130.548507,82.7025746 128.873155,82.2270364 127.250408,81.67351 C126.331606,81.358598 125.412592,81.0434748 124.491465,80.7306763 C123.549211,80.4075217 122.653437,79.9613613 121.649915,80.1875061 C121.043577,80.3248838 120.973859,81.0477018 121.314,81.4621597 C121.831606,82.0938857 122.60062,82.279874 123.346394,82.5398348 C124.330901,82.8822223 125.313296,83.2248211 126.29569,83.5669973 C127.814493,84.095373 129.405549,84.5413221 130.886324,85.188054 L130.840056,85.2937292 C130.719423,85.2599131 130.577873,85.3803828 130.601324,85.528328 C130.823155,86.8957644 131.131606,88.4766646 130.789141,89.8464258 C130.51893,90.932555 129.565901,92.1353495 128.328085,91.8159992 C128.522451,91.638465 128.594282,91.332007 128.463296,91.0487977 C127.972944,90.0005002 121.55062,85.8622614 120.978085,87.3989894 C120.95907,87.4537292 121.018014,87.4938857 121.064704,87.4856431 C121.552732,87.3839836 122.370338,88.2167037 122.760972,88.4808916 C123.325056,88.8615335 123.897592,89.2332986 124.455549,89.6242967 C125.066113,90.0514356 125.661887,90.4994982 126.242873,90.962144 C126.699211,91.3258779 127.043577,91.7039836 127.56731,91.8880697 C127.292873,92.0188955 127.075056,92.2619483 126.98231,92.5726333 C126.74569,93.3821049 126.289352,94.0689933 125.497099,94.4263867 C124.666817,94.7981519 123.730901,94.563553 122.856254,94.654645 C121.664704,94.7749033 120.625268,95.3415335 119.756958,96.1510051 C117.933718,97.8542771 117.01893,100.855663 114.46893,101.660696 C112.94569,102.140672 111.255549,101.83823 109.713296,101.620539 C107.991465,101.377486 106.314,101.185158 104.579493,101.438778 C102.91893,101.682042 101.349211,102.256704 99.8323099,102.958387 C98.4104789,103.615686 96.8386479,104.35985 95.5773803,105.340305 C95.3175211,104.539287 95.0555493,103.746723 94.8567465,102.928798 C94.3879437,100.995154 94.1344225,99.0251577 94.0729437,97.038465 C94.0161127,95.1470912 94.1217465,93.2470521 94.2842113,91.3637096 C94.3647042,90.4232008 94.4914648,89.486919 94.5717465,88.5464102 C94.592662,88.3096978 94.6351268,88.0560775 94.6668169,87.8026685 C96.9189296,86.4730638 99.2849155,85.4545667 101.670127,84.4062693 C101.676676,84.4041558 101.683014,84.3997174 101.689352,84.3978153 C101.763296,84.3637879 101.835127,84.3322967 101.90907,84.3005941 C101.906958,84.2961558 101.904845,84.2921401 101.90062,84.2877018 C102.173155,84.1209464 102.363296,83.8988172 102.47738,83.6494239 C105.914704,81.3689542 108.787944,78.2559757 110.930197,74.6247663 C111.828085,73.1030442 112.692169,71.5242575 113.866817,70.1908485 C115.117521,68.7682497 116.602732,67.9228485 118.440761,67.4832399 C120.589352,66.9677566 122.803437,66.6589738 125.004845,66.483553 C126.206958,66.3886568 127.550408,66.2405002 128.860479,66.2470521 C129.773155,66.2531812 130.666606,66.3313808 131.486535,66.5575256 C132.701324,66.8914591 133.411183,67.8152712 134.173859,68.7492282 C134.902732,69.6455648 135.62738,70.5438035 136.307662,71.4779718 C136.951817,72.3633182 137.560479,73.278465 138.088648,74.2379953 C138.405549,74.8128681 138.699211,75.4048603 138.946394,76.0154513 C139.033014,76.2312399 139.147099,76.4761949 139.199915,76.7002262 C139.252732,76.926371 139.155549,77.1654082 139.40907,77.1654082 C138.363296,77.1799914 138.373859,78.8517722 139.413296,78.7904806 C143.48231,78.5537683 137.653437,70.6072086 136.801817,69.4995217 C135.595479,67.9313025 134.351324,65.8854317 132.420338,65.1562732 C132.392873,65.1457057 132.363296,65.1353495 132.335831,65.1266841 C132.897803,64.5940814 133.341465,63.9560149 133.766113,63.3069581 C134.203437,62.6390912 134.725056,61.8740031 134.86893,61.0814395 C134.959775,60.5765237 134.33231,60.2888759 134.034423,60.730598 C133.601324,61.3752164 133.392169,62.1910286 133.06893,62.8992634 C132.739352,63.6176431 132.337944,64.2960775 132.021042,65.021009 C131.258366,64.7864102 130.434423,64.6788329 129.59569,64.6429033 C130.654141,63.2099483 132.46238,60.4452751 132.680197,60.0902067 C133.681606,58.4459014 134.634423,56.7510834 135.544986,55.0537292 C136.529282,53.2149816 137.372451,51.3001479 138.314704,49.4402654 C138.849211,48.3858387 139.387944,47.3225354 139.981606,46.2996 C140.186535,45.9487585 140.406254,45.597917 140.655549,45.2787781 C140.704141,45.2155843 140.765408,45.1627468 140.822451,45.1033573 C140.887944,45.0674278 140.955549,45.0272712 140.993577,45.0063476 C141.33562,44.8097918 141.456254,44.3532751 141.696887,44.0635139 C142.081606,43.5966411 142.533718,43.54169 143.112592,43.5351382 C144.346183,43.5224571 145.584423,43.5710677 146.816113,43.6048838 C148.626676,43.6556078 150.435127,43.7274669 152.243577,43.8225746 C152.790761,43.8521636 153.335831,43.8817526 153.883014,43.9155687 C156.513296,44.0721793 159.141465,44.2769777 161.763296,44.5286959 C164.083014,44.7504023 166.402732,45.1120227 168.724563,45.2853299 C165.580901,52.7565628 162.094986,60.0925315 158.148296,67.1727663 C158.108366,67.2444141 158.078577,67.3162732 158.059775,67.3881323 Z M140.617521,86.6358035 C140.110479,86.8685002 139.618225,87.1578387 139.159775,87.4877566 C139.235831,86.9741753 139.254845,86.4329072 139.233718,85.889737 C139.611887,86.2955295 140.09569,86.5280149 140.617521,86.6358035 Z M162.261887,73.7838035 C162.225972,73.7878192 162.192169,73.8068407 162.175268,73.8427703 C161.473859,75.2905198 161.76731,76.9073495 162.912592,78.0423006 C163.512592,78.6340814 164.820338,79.3019483 164.777873,80.2741597 C164.741958,81.0603828 163.886535,81.7197957 163.521042,82.3686411 C163.180901,82.9731029 163.054141,83.6367429 163.326676,84.2921401 C163.675268,85.1309894 164.649211,85.4649229 164.983014,86.2894004 C165.405549,87.335373 164.71893,88.5973456 164.237239,89.508054 C163.789352,90.3513417 163.210268,91.1946294 162.825972,92.0865276 C160.25062,93.4203593 157.94569,95.4662301 155.964,97.5438035 C153.794282,99.8158192 151.933014,102.489189 148.487239,102.421768 C148.142873,102.415216 147.880901,102.597189 147.724563,102.848485 C146.765408,102.892868 145.804141,102.91189 144.844986,102.916328 C143.15907,102.924571 141.473155,102.907663 139.789352,102.854825 C139.671042,102.446919 139.757662,101.893393 139.751113,101.54868 C139.730197,100.439091 139.719634,99.3316157 139.673155,98.2220266 C139.660479,97.9136665 139.647803,97.6027703 139.635127,97.2941988 C140.241465,98.3911068 141.424563,98.8898935 142.772451,98.8138074 C144.940056,98.6872086 147.120338,98.3319288 149.266606,98.0127898 C150.397099,97.8458231 151.525268,97.6556078 152.651324,97.4527115 C153.576676,97.2878583 154.88231,97.3303397 155.528789,96.5882888 C155.680901,96.415193 155.689352,96.0981675 155.45062,95.9817135 C154.810479,95.6668016 154.406958,95.8422223 153.703225,95.9776978 C152.84569,96.1444532 151.985831,96.3029659 151.123648,96.4511225 C149.469423,96.7383476 147.811183,97.0046489 146.148507,97.2392477 C145.202028,97.3723984 144.253437,97.5034356 143.304845,97.6069973 C142.476676,97.6957644 141.542873,97.8162341 140.875268,97.192962 C139.529493,95.9331029 140.283718,93.8217135 141.135127,92.5493847 C141.152028,92.5242341 141.152028,92.5007742 141.14569,92.4796391 C141.948507,92.2915374 142.749211,92.0717331 143.547803,91.9174474 C145.083718,91.6215569 146.630197,91.372375 148.178789,91.1504571 C151.360479,90.6958427 154.563296,90.3957252 157.761676,90.0937057 C158.55393,90.0174082 158.56238,88.7706528 157.761676,88.8446254 C153.166606,89.2652125 148.548507,89.6644532 144.014704,90.5502223 C142.878085,90.7698153 141.749704,91.0192086 140.628085,91.3003045 C140.097803,91.431553 139.529493,91.6365628 138.973859,91.6429033 C138.940056,91.6429033 138.906042,91.6429033 138.872451,91.6405785 C137.784423,91.6069738 137.625972,90.674919 138.223859,89.8992634 C138.297803,89.8039444 138.373859,89.7088368 138.452028,89.6181675 C139.508366,88.3583084 140.824352,87.5171342 142.18069,86.646371 C143.699915,86.4392477 145.214704,85.9785041 146.702028,85.6403436 C150.373859,84.8033965 154.04569,83.9664493 157.719634,83.1316157 C158.439845,82.9667624 158.133718,81.8592869 157.413296,82.0220266 C154.624563,82.6541753 151.835831,83.2859014 149.046887,83.9178387 L144.965408,84.8437644 C144.149915,85.0274278 143.131394,85.3972908 142.172239,85.5306528 C141.699211,85.5959601 141.240761,85.6044141 140.826676,85.5074043 C139.489352,85.1903789 139.421746,83.5183867 139.998507,82.5250403 C140.644986,81.4093221 141.866113,80.7116548 142.949915,80.0797174 C144.828085,78.9828094 146.826676,78.1944728 148.778789,77.2856665 C149.125268,77.2095804 149.471746,77.1334943 149.818225,77.0574082 C151.833718,76.6135726 154.136535,76.3958818 156.033718,75.5823945 C156.602028,75.3412438 156.291254,74.4451186 155.729493,74.4577996 C154.256958,74.4897135 152.716817,75.0136509 151.278085,75.3243358 C149.721042,75.6624963 148.161887,75.9985432 146.604845,76.3345902 C146.448507,76.3684063 145.523155,76.6642967 145.383718,76.5987781 C145.294986,76.556508 145.263296,76.2481479 145.233718,76.0450403 C145.138437,75.3771734 145.06893,74.6757018 145.172451,74.00551 C145.40062,72.5028094 146.653437,71.7968994 147.921042,71.2199131 C150.743577,69.9370168 153.838648,69.1340971 156.91893,68.8126333 C157.628789,68.7386607 158.338648,68.692375 159.052732,68.6689151 C159.891254,68.643553 160.58231,68.4956078 161.006958,69.3219875 C161.674563,70.6239053 162.042169,72.298011 162.261887,73.7838035 Z M158.342028,120.987623 C157.727028,118.859749 157.894352,116.587733 157.473085,114.417377 C157.25569,113.297643 156.958859,112.186786 156.634775,111.093682 C156.373225,110.210661 155.936958,109.27142 155.887521,108.349933 C155.884563,108.28843 155.957028,108.252923 156.006887,108.281244 C156.874563,108.77834 157.540901,109.853056 158.03569,110.696344 C158.628085,111.705541 159.080408,112.762293 159.445268,113.873361 C160.172451,116.086833 160.769493,118.756821 159.831676,120.987623 C159.552592,121.651686 158.57231,121.784625 158.342028,120.987623 Z M139.335127,92.8030051 C139.854845,92.7524924 140.374563,92.6529464 140.894282,92.5367037 C140.313296,93.1033339 139.776676,93.785784 139.478577,94.5426294 C139.43231,93.961416 139.372944,93.3821049 139.294986,92.8053299 C139.307662,92.8053299 139.322451,92.8053299 139.335127,92.8030051 Z M134.340338,137.095897 C133.423859,136.45614 132.756042,135.561706 131.978789,134.772312 C131.214423,133.996023 132.409352,132.800414 133.17393,133.576915 C133.837099,134.250066 134.412803,135.09124 135.193225,135.63589 C135.568859,135.897753 135.742732,136.371389 135.496606,136.79261 C135.279,137.164375 134.714915,137.357338 134.340338,137.095897 Z M129.229352,112.505925 C130.90238,111.782261 132.547732,110.994136 134.298718,110.472946 C135.345127,110.161205 135.788155,111.793463 134.748085,112.103091 C133.135479,112.58349 131.623014,113.299545 130.082451,113.965721 C129.093296,114.393494 128.233648,112.936445 129.229352,112.505925 Z M111.561042,111.99953 C111.151817,110.989698 112.787662,110.554528 113.190761,111.550199 C113.654915,112.69614 114.186887,113.812704 114.651042,114.958645 C115.059845,115.968477 113.424423,116.403858 113.021324,115.408187 C112.557169,114.262246 112.024986,113.145682 111.561042,111.99953 Z M94.1219577,132.166363 C93.8494225,132.529886 93.3949859,132.726864 92.9656901,132.469862 C92.6061127,132.254285 92.3866056,131.681103 92.6625211,131.313142 C93.4680845,130.23906 94.2842113,129.17787 95.2283662,128.220242 C95.9937887,127.443952 97.1882958,128.640406 96.423507,129.41585 C95.580338,130.270974 94.8415352,131.207044 94.1219577,132.166363 Z M91.6283662,19.0113182 C92.4041408,19.5413847 93.0837887,20.1853691 93.7465352,20.8479523 C94.5170282,21.6183241 93.3216761,22.8137213 92.5511831,22.0433495 C91.9928028,21.484962 91.4295634,20.9181205 90.7752676,20.471326 C90.3973099,20.213056 90.227662,19.7326568 90.4720986,19.3146059 C90.6911831,18.9400932 91.2512535,18.7538935 91.6283662,19.0113182 Z M116.999704,46.2199209 C116.561113,47.0985041 116.166254,47.9597566 116.141324,48.9583867 C116.114704,50.0462067 114.424563,50.0468407 114.451394,48.9583867 C114.483718,47.6516078 114.965408,46.5183476 115.540268,45.3664885 C116.026606,44.3915295 117.48393,45.2489777 116.999704,46.2199209 Z M126.308577,24.36778 C127.217239,23.7618387 128.062521,25.2271303 127.161887,25.8277879 C126.431746,26.3145276 125.701394,26.80169 124.971254,27.2886411 C124.063014,27.894371 123.217732,26.4292908 124.118155,25.8286333 C124.848296,25.3416822 125.578437,24.8547311 126.308577,24.36778 Z M85.932169,62.5742067 C85.7770986,63.6487115 84.1486479,63.1890247 84.3022394,62.1248759 C84.5399155,60.4801479 84.8299859,58.857189 85.2759718,57.2551538 C85.5679437,56.2068564 87.1978732,56.654919 86.9056901,57.7046959 C86.4597042,59.3067311 86.1696338,60.92969 85.932169,62.5742067 Z M80.0063239,81.9423476 C78.918507,81.9193104 78.9182958,80.228508 80.0063239,80.2515452 C80.990831,80.2724689 81.9586479,80.5315843 82.9082958,80.7687194 C83.9646338,81.0326959 83.5142113,82.6628407 82.4589296,82.3990755 C81.6561127,82.1985041 80.8387183,81.960101 80.0063239,81.9423476 Z M77.8188592,120.957612 C77.4451268,121.139584 77.0616761,121.303381 76.6839296,121.476265 C75.9273803,121.822246 75.1712535,122.168649 74.415338,122.515897 C72.8405493,123.239138 71.2666056,123.964704 69.6941408,124.692805 C66.5462535,126.150488 63.3740704,127.556813 60.2185775,128.998645 C57.0007606,130.46922 53.7913944,131.95924 50.5860423,133.456868 C49.0759014,134.162144 47.5543521,134.841635 46.0357606,135.528524 C44.7373099,136.115866 43.1323099,137.142183 41.7068873,137.23877 C41.6335775,137.243843 41.6090704,137.15106 41.6509014,137.103506 C42.1894225,136.490802 43.0484366,136.134465 43.7561831,135.736281 C44.4791408,135.32922 45.2156197,134.946465 45.9487183,134.558214 C47.4770282,133.748109 49.0072394,132.944555 50.550338,132.162982 C53.6369577,130.600469 56.729493,129.049158 59.822662,127.499749 C62.9773099,125.919483 66.1279437,124.328649 69.3102676,122.804602 C70.8085775,122.086856 72.3083662,121.371436 73.809,120.658128 C74.6219577,120.27178 75.435338,119.886066 76.2487183,119.500986 C76.6000563,119.334653 76.9478028,119.155216 77.3069577,119.006426 C77.7842113,118.808813 78.1469577,118.849181 78.6392113,118.727443 C79.4420282,118.529197 79.7895634,119.550441 79.1732958,119.995123 C78.665831,120.361393 78.3987887,120.674614 77.8188592,120.957612 Z M66.5356901,138.294888 C66.3622394,137.873244 66.7254085,137.360508 67.1259718,137.254833 C67.6057606,137.128445 67.9904789,137.420109 68.1656197,137.845346 C68.6289296,138.972899 69.2889296,140.007459 70.1384366,140.881181 C70.8977324,141.661909 69.7032254,142.857941 68.9432958,142.07679 C67.8787183,140.981573 67.1139296,139.701635 66.5356901,138.294888 Z M58.2347746,111.155185 C57.4642817,110.384602 58.6596338,109.189205 59.4299155,109.959788 L61.620338,112.150856 C62.390831,112.921651 61.1952676,114.117048 60.4251972,113.346465 L58.2347746,111.155185 Z M35.7622394,107.582731 C34.1874507,108.044743 32.3506901,108.469557 31.2770282,109.813533 C31.2246338,109.879263 31.1365352,109.794935 31.1680141,109.729416 C32.5425211,106.878723 36.4843521,105.878825 39.213507,104.880195 C41.1438592,104.173651 43.124493,103.587788 45.1218169,103.064485 C44.922169,100.785072 45.4727324,98.3420736 45.6641408,96.0738622 C45.8684366,93.6522106 46.0347042,91.2242184 46.1200563,88.7949581 C46.2073099,86.3168759 46.2284366,83.8220971 46.1468873,81.3433808 C46.0657606,78.8737526 45.7452676,76.4343476 45.6049859,73.972962 C45.5914648,73.7349816 45.9227324,73.7235687 45.9941408,73.9203358 C46.8235775,76.2043984 47.1778732,78.7344728 47.4478732,81.1428094 C47.7259014,83.6238505 47.8182254,86.0977057 47.7827324,88.5931186 C47.7459718,91.1589112 47.5968169,93.7185746 47.3920986,96.2761245 C47.2951268,97.4884297 47.1825211,98.6990442 47.0762535,99.9105041 C46.9951268,100.83495 46.9575211,101.751999 46.7690704,102.647068 C47.9737183,102.351389 49.1811127,102.071561 50.3847042,101.799553 C54.2225915,100.933228 58.0765352,100.129252 61.8983662,99.1923358 C63.7744225,98.7326489 65.6236479,98.1818701 67.4912535,97.6928055 C69.2498451,97.2322732 71.1060423,96.6738857 72.9115352,96.4684532 C73.5559014,96.3949033 73.6378732,97.2766568 73.2113239,97.5759288 C71.7438592,98.6066841 69.7949155,99.3244297 68.0999155,99.901416 C66.3987887,100.480305 64.6304789,100.896876 62.8868873,101.325706 C59.2507606,102.220351 55.5801972,102.951835 51.9151268,103.713753 C48.2551268,104.474825 44.5881549,105.230191 40.9693521,106.16922 C39.2266056,106.62151 37.4897746,107.07549 35.7622394,107.582731 Z M27.1325915,62.3489072 C26.1916056,62.9015883 25.3420986,61.4396783 26.2797042,60.8888994 C27.5065352,60.1686176 28.8140704,59.6273495 30.132169,59.0993965 C31.1437183,58.6944493 31.5789296,60.3303006 30.5815352,60.729964 C29.3969577,61.2042341 28.2349859,61.7017526 27.1325915,62.3489072 Z M23.7252676,125.165385 C22.7817465,125.712782 21.9316056,124.251083 22.8723803,123.705588 C24.1936479,122.939443 25.6406197,122.428187 27.0098451,121.757784 C27.984,121.280555 28.8396338,122.739506 27.8627324,123.217792 C26.4937183,123.888195 25.0465352,124.39924 23.7252676,125.165385 Z M22.1927324,89.5078427 C23.1049859,90.3748016 24.3225211,90.782919 25.4705493,91.2383789 C26.4715352,91.6350834 26.0325211,93.2696665 25.0211831,92.868735 C23.5909014,92.3012595 22.134,91.7832399 20.9975915,90.7032399 C20.2070282,89.952101 21.4042817,88.7586059 22.1927324,89.5078427 Z M32.2851972,41.0822067 C33.2880845,41.4757409 32.8488592,43.1103241 31.835831,42.7127742 C30.7123099,42.2718975 29.5520282,41.9362732 28.428507,41.4953965 C27.425831,41.1018622 27.8648451,39.4674904 28.8778732,39.864829 C30.0013944,40.3057057 31.1616761,40.6413299 32.2851972,41.0822067 Z M50.0893521,21.8476391 C51.1549859,21.6679914 51.6087887,23.2975022 50.5387183,23.4782067 C49.2111127,23.7024493 47.9037887,23.964735 46.6446338,24.4521088 C45.6278028,24.8456431 45.1915352,23.2102145 46.1952676,22.8217526 C47.4546338,22.3343789 48.7619577,22.0718818 50.0893521,21.8476391 Z M55.9720986,68.6792712 C54.9949859,68.1986607 55.8523099,66.741189 56.8249859,67.2194748 C57.8500563,67.7235452 58.9120986,68.1132751 60.0305493,68.3514669 C61.0955493,68.5784571 60.6419577,70.2081793 59.5811831,69.9820344 C58.3224507,69.7136196 57.1247746,69.2463241 55.9720986,68.6792712 Z M61.5282254,42.2995843 C62.580338,42.0113025 63.0252676,43.6427155 61.9775915,43.9301519 C60.1342817,44.4352791 58.2364648,44.6979875 56.3796338,45.1475295 C55.3213944,45.4036861 54.8737183,43.7729072 55.9302676,43.5171734 C57.7870986,43.06742 59.6851268,42.8051342 61.5282254,42.2995843 Z M85.098507,34.021416 C86.1683662,34.2194513 85.7124507,35.8487507 84.6493521,35.6519836 C83.5175915,35.4425354 82.3706197,35.4391538 81.2232254,35.4385198 C80.1339296,35.4380971 80.135831,33.7472947 81.2232254,33.7477173 C82.5267465,33.7483515 83.8135775,33.783647 85.098507,34.021416 Z M161.970338,42.8548016 C159.20907,42.5906137 156.443577,42.3792634 153.673859,42.2207507 C153.544775,42.2141988 153.418225,42.2059562 153.289141,42.1994043 C153.274563,42.1700266 153.255549,42.1423397 153.236324,42.1127507 C152.33231,40.7854708 151.666817,39.4584023 151.090056,37.9576039 C150.538648,36.5288759 150.004141,35.0559757 149.154845,33.7667389 C148.186183,32.2978544 146.878437,31.1485315 145.445197,30.1524376 C144.575831,30.7372438 143.769,31.4220188 143.030831,32.1477957 C142.254,32.9114043 141.058648,31.716007 141.83569,30.9521871 C142.491676,30.307146 143.191817,29.7113495 143.931887,29.1730403 C143.07731,28.6535413 142.205408,28.1653221 141.354845,27.6796391 C138.166606,25.8601245 134.902732,24.1775648 131.571042,22.639146 C130.022451,21.9224571 128.454845,21.2862928 126.876676,20.6416744 C126.027169,20.2952712 125.188648,19.8491108 124.339352,19.4477566 C124.40062,18.8473104 124.221042,18.1752164 123.760479,17.7799914 C123.420338,17.4904415 123.156254,17.3826528 122.75062,17.1778544 C122.659775,17.1459405 122.604845,17.126919 122.579493,17.1163515 C122.598507,17.1205785 122.653437,17.1374865 122.74407,17.1670755 C122.959775,17.2666215 122.976676,17.2368211 122.794986,17.0804219 C122.784423,16.7382458 122.110268,16.0154278 121.956254,15.6624728 C121.419634,14.4512243 121.252732,13.1704415 120.460479,12.067193 C119.368225,10.5475843 117.534423,9.9729229 115.825056,10.4884063 C115.647803,8.66022622 115.601324,6.75194442 114.912592,5.12010881 C114.893577,5.07593659 114.83231,5.05670372 114.804845,5.10531429 C114.086535,6.32924384 114.025268,7.69224188 113.970338,9.10406184 C113.917521,10.4292282 113.968014,11.7839836 114.141465,13.1006959 C114.031606,13.185236 113.919634,13.2657605 113.803437,13.3437487 C113.258366,13.7030442 112.671042,13.9799131 112.054141,14.1851342 C110.879493,14.5738074 109.647803,14.7428877 108.416113,14.8020658 C105.236535,14.954238 101.959775,14.6329855 98.8330141,14.0877018 C95.670338,13.5360775 90.8217465,12.7075843 88.007662,11.1245706 C86.1504085,10.0807115 84.4372394,8.80605793 82.7004085,7.57177221 C83.3301972,5.54280939 83.4907606,3.36167436 82.8569577,1.64762348 C82.7809014,1.4426137 82.4597746,1.40457065 82.398507,1.64762348 C82.0013239,3.28347476 81.8851268,4.92778004 81.3569577,6.54460978 C81.348507,6.56785832 81.3400563,6.5934317 81.3316056,6.61646888 C81.1668169,6.50466458 81.0020282,6.39455108 80.8372394,6.28464892 C80.4569577,6.03314207 79.9393521,6.22145519 79.7111831,6.58053933 C76.0623803,12.3313808 70.2844225,12.6610873 64.2168169,13.6884611 C57.5764648,14.8126333 50.9027324,16.025784 44.5182254,18.2259405 C38.4125915,20.3312008 32.5773803,23.39578 27.9548451,27.9736274 C26.9084366,29.0100892 25.9298451,30.1143945 25.0061831,31.2673104 C25.8998451,31.3799601 26.7861127,31.5553808 27.6609718,31.8303476 C28.6968169,32.155827 28.2516761,33.7876626 27.2116056,33.4607037 C26.0872394,33.107326 24.9504085,32.9325393 23.8019577,32.845463 C20.6610423,37.1439053 18.2120282,42.0178544 16.0942817,46.8152947 C12.0322394,56.0134708 9.38822535,65.8091342 8.17153521,75.7821205 C8.83956338,75.3816117 9.5196338,75.0001245 10.2166056,74.6452673 C11.1850563,74.1526098 12.0392113,75.6117722 11.0697042,76.1052751 C9.99308451,76.6530951 8.94730986,77.2569229 7.93407042,77.9116861 C7.49146479,82.2771264 7.31991549,86.6706763 7.42385915,91.0572517 C7.67104225,101.514864 9.08230986,112.278935 12.2745634,122.256782 C13.8400563,127.153768 15.9147042,132.010809 19.0055493,136.149048 C20.4041408,138.023514 21.9928732,139.714316 23.8647042,141.124023 C24.7710423,141.808798 25.7301972,142.419811 26.742169,142.935295 C28.0456901,143.603162 29.7442817,143.822966 30.8682254,144.767702 C31.2379437,145.078598 31.5231549,145.488406 31.7386479,145.951263 C31.614,146.830481 31.5992113,147.711811 31.8400563,148.591029 C31.9161127,148.865995 32.1231549,149.089815 32.3787887,149.197604 C32.3830141,149.27369 32.3830141,149.347663 32.3830141,149.419522 C32.3830141,149.453338 32.4337183,149.461792 32.4400563,149.428187 C32.4506197,149.362457 32.4611831,149.296939 32.4717465,149.229518 C32.5541408,149.256782 32.6407606,149.269674 32.729493,149.269674 C35.9386479,149.281721 39.1518169,149.203522 42.3651972,149.094465 C42.1167465,148.33297 41.8475915,147.578027 41.5892113,146.816532 C41.2382958,145.782183 42.8711831,145.342363 43.2189296,146.367201 C43.5212535,147.257408 43.8373099,148.139796 44.118507,149.033173 C47.5615352,148.905095 51.003507,148.751232 54.4393521,148.637737 C61.7470986,148.394473 69.0527324,148.31416 76.3623803,148.160085 C87.714,147.919357 99.1482254,147.426488 110.51738,147.908578 C110.910549,147.073745 111.35062,146.258144 111.767873,145.434723 C112.260127,144.462935 113.717873,145.319537 113.22731,146.288156 C112.937239,146.860281 112.636817,147.42522 112.351394,147.996289 C114.654,148.115913 116.954282,148.274003 119.249704,148.489792 C123.166606,148.85733 127.04569,149.510402 130.958366,149.916406 C134.936324,150.330441 138.828085,150.25668 142.774563,149.599381 C143.484423,149.481025 143.902732,149.051772 144.075972,148.519169 C144.082099,148.517056 144.086535,148.51304 144.090549,148.506488 C144.293366,148.269776 144.483718,148.073432 144.679986,147.902027 C144.914704,147.750066 145.168225,147.620931 145.466113,147.506802 C146.021746,147.295451 146.60062,147.166528 147.187944,147.079874 C147.834423,146.982864 148.489352,146.974199 149.135831,146.894097 C149.68069,146.824351 150.213296,146.720578 150.745479,146.59398 C151.702732,146.365721 152.611183,146.067717 153.515408,145.672281 C154.303437,145.327991 155.015197,144.833432 155.687239,144.294277 C157.07738,143.277682 158.281394,141.980203 159.333718,140.631577 C159.946394,139.84324 160.523155,139.025314 161.047099,138.173784 C161.959775,136.698348 162.737239,135.166058 163.523155,133.621087 C163.808366,133.163303 164.068648,132.694528 164.306535,132.215819 C162.77062,131.763107 161.219915,131.394089 159.591676,131.367882 C158.503225,131.35034 158.503437,129.659537 159.591676,129.677079 C161.45907,129.70688 163.225479,130.143318 164.980479,130.66324 C165.066042,130.436038 165.148014,130.207146 165.223859,129.975295 C165.433014,129.491514 165.606254,128.994629 165.749915,128.491616 C165.834211,128.263357 165.91893,128.035099 166.003437,127.806841 C166.193577,127.016391 166.383718,126.223827 166.575972,125.431263 C166.958366,124.163162 167.260268,122.876038 167.48231,121.572007 C167.668225,120.713925 167.811887,119.849502 167.90907,118.974512 C168.204845,116.854668 168.44569,114.739052 168.462592,112.59596 C168.437239,111.275021 168.352732,109.956195 168.20907,108.64371 C168.147803,107.751811 168.044282,106.86414 167.904845,105.982809 C167.723155,104.672438 167.543577,103.374958 167.241465,102.081283 C167.015408,101.206504 166.789352,100.331303 166.563296,99.4563123 C165.999211,97.6325706 165.333718,95.8443358 164.566606,94.0964689 C164.524563,93.9867781 164.310972,93.7456274 164.18231,93.7435139 C164.085127,93.7414004 163.949704,93.8301675 163.99407,93.948735 C163.998507,93.9590912 164.002521,93.9717722 164.006958,93.9823397 C163.962592,93.8830051 163.920338,93.7815569 163.875972,93.6822223 C163.837944,93.5892282 163.690056,93.4034513 163.575972,93.4055648 C163.569634,93.4055648 163.563085,93.4055648 163.554845,93.4074669 C163.584423,93.3865432 163.611887,93.3588564 163.639352,93.3273652 C164.397803,92.4291264 164.890056,91.2474669 165.433014,90.2076235 C165.883014,89.3495413 166.307662,88.444962 166.430197,87.4748642 C166.537732,86.6233339 166.392169,85.7840618 165.857662,85.0950599 C165.249211,84.3109503 164.104141,83.9432008 164.740056,82.8103632 C165.462592,81.5211264 166.525268,80.4030834 165.466817,78.9384258 C164.928085,78.1923593 164.074563,77.7825511 163.440761,77.1334943 C162.711887,76.3832008 162.365197,75.3792869 162.384423,74.354238 C162.428789,74.3796 162.487944,74.3671303 162.50907,74.3035139 C163.121746,72.4520853 162.678085,70.4191068 162.05062,68.6160775 C161.708366,67.637737 160.983507,67.3691108 160.140761,67.3207115 C163.791254,60.1876391 167.207451,52.9402262 170.252028,45.5260579 C170.353437,45.2830051 170.452732,45.0401636 170.551817,44.7968994 C170.699915,44.4333769 170.387239,43.9495961 170.025972,43.8690716 C167.393577,43.2920853 164.651324,43.1082106 161.970338,42.8548016 Z" id="ðŸ–-Ink" fill="#000000"></path>
                    </g>
                    <g id="head/Medium-Bangs-2" transform="translate(78.591549, 38.043053)" fill-rule="evenodd">
                        <path d="M86.1692958,30.5323397 C85.7000704,29.3477213 84.8702113,27.8587585 83.4832394,27.7993691 C82.4104225,24.5181558 79.7429577,21.1764963 76.0326761,21.2652634 C65.1422535,10.124144 51.431831,10.6493495 37.0973239,13.0078074 C29.5347887,14.410962 21.8558451,17.1585159 16.2154225,22.5804963 C9.45992958,28.9636978 6.82943662,40.101647 12.1195775,48.173326 C7.54753521,50.6243554 7.45880282,56.4407155 9.41408451,60.6379209 C7.06373239,62.2638387 6.92091549,66.2101714 9.56746479,67.450375 C9.42676056,68.0269386 9.52626761,68.6229464 9.79457746,69.1352595 C8.48239437,70.2279405 6.77450704,71.0350873 5.36260563,71.7289503 C4.73852113,72.0356196 4.37852113,72.5365198 4.22894366,73.1010364 C-0.407112676,76.1436352 -11.9672535,83.5793613 -11.829507,89.4973808 C-11.8975352,92.5847859 -9.60823944,94.6167076 -6.82626761,95.4257566 C-8.4815493,98.7361362 -9.73795775,102.60279 -8.1534507,106.173764 C-7.71549296,107.252708 -4.43404229,110.423633 -4.26883102,110.482177 C-3.9800282,110.729879 0.727605634,108.567729 3.0156338,107.464903 C3.45929577,110.351948 6.54528169,111.864582 9.20535211,110.875252 C11.7276761,110.114602 13.278169,107.978485 14.8690141,106.03533 C16.9806338,110.6434 23.1933803,110.696449 27.2087324,108.709757 C30.8148592,107.043259 33.5560563,103.988825 35.0830986,100.30816 C43.1919718,104.27922 52.6791549,105.436786 61.4890141,103.850602 C62.0543662,104.851557 63.3059155,105.523862 64.4207746,105.136668 C69.1054225,103.727807 74.2850704,103.648762 78.2560563,100.420809 C86.5333099,94.4774278 87.2302817,83.5201832 86.6530986,74.1799796 C86.1411972,64.8672517 86.5892958,55.4769581 84.8970423,46.2648329 C85.6314085,43.5525746 86.8529577,41.1548055 87.9832394,38.6067663 C89.2111268,35.9348759 89.1853521,31.9629699 86.1692958,30.5323397 Z" id="ðŸŽ¨-Background" fill="#FFFFFF"></path>
                        <path d="M9.21325352,70.0617346 C9.70107042,69.9391515 9.96304225,70.5949714 9.54895775,70.8585252 C6.91994366,72.5313628 4.20409859,74.025398 1.6644507,75.8455468 C-0.75108501,77.5758263 -2.98215743,79.5468471 -5.06267462,81.6659412 L-5.29322535,81.9020008 C-7.17414085,83.8377581 -9.25723944,86.3004117 -9.2783662,89.1559656 C-9.2946338,91.3755663 -7.584,93.7982748 -5.19730986,93.5066114 C-4.29815493,93.3967092 -3.47167606,94.5380008 -3.78540845,95.3607875 L-4.11551031,96.227986 C-5.44345626,99.7374248 -6.7945528,103.713741 -5.74558621,107.405991 L-5.70709859,107.537735 C-5.4533662,108.383136 -5.18590141,109.130259 -4.20498592,109.113351 C-3.2946338,109.097288 -2.34730986,108.790196 -1.49505634,108.497054 C0.273464789,107.888576 1.87614085,106.873883 3.23649296,105.59775 C4.4397487,104.4691 5.97705634,105.615788 5.81505937,107.05014 L5.80930986,107.096013 C5.58769014,108.705656 8.151,109.452991 9.31635211,109.222831 C11.6172676,108.767582 13.2577606,106.461328 14.5644507,104.703105 C15.1925493,103.858337 16.7181127,103.525672 17.2699437,104.703105 C18.3634648,107.035355 20.6174789,108.778572 23.2543099,108.851699 C24.6239577,108.889531 25.9380423,108.49959 27.0981127,107.776349 C27.5716121,107.480979 27.9950674,107.129782 28.3834336,106.731736 L28.4798028,106.631253 C29.0544507,106.02193 29.451,105.69793 30.1849437,105.299958 C30.9081127,104.907903 31.8436056,105.394009 31.8392003,106.249343 C31.8332535,107.357241 31.5087465,108.093797 30.7450141,108.897351 C30.1131127,109.562893 29.3622676,110.147065 28.5729718,110.613938 C26.9867746,111.551488 25.101,112.079018 23.2543099,112.017938 C20.3434648,111.921562 17.5650845,110.47022 15.7640282,108.212999 C13.9251549,110.412521 11.6440986,112.433453 8.67980282,112.379136 C6.46064789,112.338557 4.3925493,111.182893 3.40170423,109.392333 C2.00290141,110.357148 0.467619718,111.111457 -1.17477465,111.604114 L-1.32112241,111.647382 C-3.64590231,112.324186 -6.32127748,112.593238 -7.81766197,110.284443 C-9.22259155,108.116834 -9.32738028,105.115026 -9.00540845,102.637367 C-8.71787324,100.424106 -8.03716901,98.3222278 -7.25547887,96.2490928 C-9.4805493,95.5843961 -11.207662,93.4935076 -11.8009014,91.2396681 C-12.6983662,87.8314333 -10.9573099,84.526126 -8.80491549,81.9937268 C-6.4668169,79.2427914 -3.52407042,76.916036 -0.559352113,74.8794646 C2.3975493,72.8485996 5.71001408,70.9401065 9.21325352,70.0617346 Z M85.2420845,43.403636 C85.2475775,43.3089511 85.4026479,43.2757691 85.4170141,43.3797534 C86.4382817,50.793499 87.0296197,58.1922387 87.5191268,65.6569198 C87.7673662,69.4386106 88.0491972,73.2164971 88.3576479,76.9935382 C88.6536338,80.6154481 89.1463099,84.3337339 89.0349718,87.9704384 C88.8606761,93.6650607 86.0964507,98.2953229 81.5639155,101.627472 C77.2208873,104.820763 71.8331408,106.39955 66.5470141,107.066571 C63.4770845,107.453977 60.3644789,107.472575 57.291169,107.10863 C55.6949762,106.919604 54.100826,106.667977 52.5374413,106.290187 L51.8614763,106.121014 C50.6302925,105.806461 49.2555864,105.379516 49.0800423,103.920622 C48.9949014,103.214078 49.3701127,102.692888 49.9760282,102.338243 C50.7659577,101.875808 51.671662,102.148027 52.4856761,102.358744 C53.8574366,102.713812 55.2437746,103.018579 56.6457465,103.229295 C59.6569437,103.682431 62.7524366,103.709272 65.7790563,103.395628 C70.8701831,102.867675 76.2406056,101.215761 80.1659577,97.8041448 C81.8719437,96.3217339 83.3552535,94.5153229 84.1354648,92.369272 C85.1385634,89.6103053 84.9900423,86.6004658 84.9564507,83.7113072 C84.878493,76.9935382 84.9471549,70.2757691 84.8537746,63.5573659 C84.7599718,56.8184618 84.8417324,50.1326067 85.2420845,43.403636 Z M34.0447817,12.0086912 C39.9936549,10.4738654 46.0310493,10.0750474 52.1417535,10.5370591 C57.9045,10.9724407 64.4692183,12.2623115 69.175838,15.8081354 C69.4042183,15.9801746 69.2675282,16.3058654 68.9848521,16.2608477 C65.8382324,15.7591022 62.7710493,14.8464916 59.6379507,14.2426638 C56.6244296,13.6618732 53.5566127,13.2258575 50.488162,13.1248321 C40.1102746,12.782656 28.5625986,15.1351961 20.1942887,21.6077988 C16.2704155,24.6425777 13.2759085,28.7233292 12.0841479,33.5786795 C10.8619648,38.5587264 11.5232324,43.9443546 13.9775282,48.4492861 C14.3309789,49.0979202 14.1852042,50.1240258 13.4478803,50.4693722 C11.2105563,51.517247 9.61696479,53.8387186 9.65161268,56.3438536 C9.66830282,57.5589065 10.0870352,58.7240806 10.7599225,59.7284172 C11.4714718,60.7904524 12.5546408,61.5335601 13.3504859,62.525427 C13.6637958,62.9160023 13.675838,63.4538888 13.4275986,63.813607 C13.8930211,64.0175601 14.394993,64.1270395 14.8530211,64.3679789 C15.241331,64.5723546 15.2523169,65.2104211 14.8530211,65.4116266 C13.843162,65.9203468 12.751331,65.3803468 12.0697817,64.5600963 C11.9480915,64.4136305 11.8428803,64.261247 11.7469648,64.1056932 C10.9306268,63.9325973 10.1992183,63.522789 9.56055634,62.9622881 C8.34365493,63.6912352 8.17696479,65.3139828 9.2223169,66.553975 C9.75617389,67.1870097 10.514659,67.577742 11.2812201,67.858634 L11.3732324,67.8918223 C12.1192183,68.1568556 12.8024577,68.3048008 13.2871056,68.9018654 C13.6067535,68.2352665 13.9737254,67.6069221 14.3827394,67.0343742 C15.8698521,64.9532078 18.1557676,63.1068517 20.8682324,63.3412391 C22.9929507,63.5244798 24.8337254,65.046202 25.2691479,67.1457558 C25.3012606,67.3010982 25.0671761,67.4224133 24.9974577,67.2603076 C23.9780915,64.8824055 20.752669,64.7951178 18.8314014,66.0342646 C16.5718944,67.4917362 15.3370352,70.2382333 14.8416127,72.7962059 C14.354007,75.3159241 14.635838,78.3805033 16.5209789,80.2970278 C17.2923169,81.0813487 18.3416831,81.6236736 19.4368944,81.7665464 C19.9722597,81.8366883 20.4444923,81.7676981 20.956473,81.6645866 L21.2957687,81.5936684 C21.5311373,81.5449852 21.765169,81.5056344 22.0120352,81.5275092 L22.3798521,81.5769652 L22.3798521,81.5769652 L22.5888789,81.6747565 C22.7701192,81.7562467 22.7537208,81.7339303 22.5397817,81.607611 C23.1647113,81.5564642 23.4877394,82.0184759 23.5219648,82.5250826 C23.5418239,82.5377636 23.5610493,82.5515014 23.5771056,82.5711569 C25.9487958,85.4746873 27.7097113,88.8121198 30.2265423,91.6205425 L30.9633112,92.4432589 C32.8573767,94.5510251 35.019694,96.8361605 37.5927136,97.9296064 L37.898916,98.0563354 C38.6474897,98.3726217 39.3992042,98.8056211 39.4946408,99.7082841 C39.5802042,100.51691 38.9430211,101.125388 38.2084437,101.314124 C36.5356268,101.743376 34.6287254,100.256104 33.4035845,99.2802998 C30.7690775,97.1826481 28.554993,94.5086442 26.7264718,91.6951491 L26.5457202,91.4149447 C25.0426018,89.0665902 23.6298982,86.3882489 23.1909085,83.6010669 L23.1117326,83.729492 C23.1058072,83.7386295 23.1011725,83.7455249 23.098162,83.7496462 C23.0085845,83.871384 22.9099225,83.9741002 22.7954155,84.0725894 C22.4878099,84.3382568 22.1125986,84.4933879 21.7228099,84.5986403 C20.9911901,84.7962528 20.189007,84.8351413 19.4368944,84.7582098 C17.9092183,84.6020219 16.4812606,84.0203859 15.2736549,83.0731139 C11.5967535,80.1883937 11.1625986,74.820519 12.6497113,70.4656462 C11.4294296,70.7570982 10.0395,69.9355796 9.0866831,69.2315718 C7.99400704,68.423791 7.0929507,67.2577714 6.87766901,65.886108 C6.6638662,64.5250121 7.53133099,62.7226168 8.8179507,62.1974114 C7.4829507,60.5938967 6.70569718,58.3182881 6.62541549,56.4962372 C6.48597887,53.3268282 8.16914789,50.3311491 10.7533732,48.601881 C8.32316197,43.3918849 7.85499296,37.3474779 9.49126056,31.8155953 C12.7382324,20.8382724 23.6151338,14.6996031 34.0447817,12.0086912 Z M24.7868662,95.4124838 L24.8172224,95.3160704 C25.0760915,94.4671192 25.4102928,92.7784411 26.6781338,93.4213526 C27.889331,94.0353252 27.1160915,95.8527264 26.6925,96.7374387 C26.185669,97.7960924 25.3103873,98.6448751 24.1348944,98.8722881 C23.1786972,99.0572196 22.1286972,98.8196618 21.4598239,98.0805699 C21.2648239,97.8652039 21.1547535,97.6289143 21.0391901,97.368108 C20.9941901,97.2666599 20.9739085,97.1971256 20.9654577,97.1518967 C20.9544718,97.201564 20.9232042,97.2755366 20.8433451,97.3626129 C20.3096831,97.9459397 19.8055986,98.6250082 19.4183451,99.3150669 C19.3266549,99.4782294 19.0376408,99.3638888 19.1107394,99.1852978 C19.5617958,98.0816266 19.4859507,96.374973 20.4913732,95.5767029 C21.3775728,94.8729924 22.2102807,95.4268282 22.6790044,96.2463334 L22.7029225,96.2889534 C23.3880634,97.533384 24.4798944,96.3515131 24.7868662,95.4124838 Z M15.1469155,91.4247053 L15.2394794,91.29614 C16.1870415,90.0006022 17.7850754,88.4421368 19.3840986,89.647038 C19.8926197,90.030216 19.9114225,90.669762 19.3840986,91.0499812 L19.1845806,91.1925032 C18.4860108,91.6878959 17.7904427,92.1558027 17.277338,92.8663256 C16.7198028,93.638811 16.2190986,94.4567366 15.4695211,95.0626779 C14.1438169,96.1342239 12.0013521,96.3455742 10.851,94.9009949 L10.7378453,94.7576335 C10.6416106,94.6336939 10.5311831,94.4844023 10.4415634,94.3354215 L10.3717285,94.4321574 C10.3649121,94.4418558 10.3585082,94.4511181 10.3526146,94.4598578 L10.3365634,94.4844235 C9.86374648,95.2402121 9.26649296,95.8626387 8.52261972,96.3538168 C7.1088169,97.2869284 5.51564789,97.4166975 3.91614085,96.9227718 C3.75959155,96.8741613 3.8016338,96.6642904 3.95311268,96.6503413 C5.84839437,96.4732297 7.69508451,95.1262943 8.466,93.3917425 L8.55306224,93.1970707 C8.8650138,92.5070909 9.21452113,91.8513853 9.98522535,91.5804705 C10.7354366,91.3167053 11.5230423,91.595265 12.0374789,92.1629519 C12.4676197,92.6374333 12.5783239,93.5806896 13.3543099,93.3727209 C14.2040282,93.1448853 14.682338,92.0803139 15.1469155,91.4247053 Z M9.71839437,79.9011898 C10.1381831,79.5820509 10.7956479,79.9244384 10.9112113,80.3868728 C11.4349437,82.4805088 9.25973239,84.9476008 7.1694507,85.0124853 C6.63135211,85.0289706 6.11374648,84.8987789 5.63712676,84.6495969 C5.26740845,84.4564227 4.82987324,83.9627084 4.42402817,83.8809159 C3.89987324,83.7754521 3.43550704,84.4737534 3.06642254,84.8322035 C2.60860563,85.2770959 2.15564789,85.6900744 1.64269014,86.0692368 C1.43776056,86.220775 1.11980282,85.9663092 1.20642254,85.7336125 L1.3799349,85.2709481 C2.00801468,83.6241726 3.08980986,81.2201784 5.11423944,81.9035225 C6.10614085,82.2383014 6.85276056,83.3673346 7.89726761,82.4733229 C8.73367606,81.7574795 8.8116338,80.5904031 9.71839437,79.9011898 Z M18.6505141,71.4727092 C20.5377676,69.3055233 24.9741761,70.4501965 25.8154437,73.0867914 C26.0013592,73.6690614 25.8074155,74.4259068 25.3527676,74.8380399 C24.7538239,75.3809988 23.8994577,75.5454294 23.1722746,75.1195585 C22.5465,74.7532885 22.2895986,74.153899 21.829669,73.6396838 C21.1550915,72.88622 20.2375563,72.4679577 19.2921338,72.168263 C19.0557254,72.292537 18.8357958,72.4559108 18.6384718,72.6528892 C18.5374859,72.7537033 18.3467113,72.6154802 18.4362887,72.4967014 C18.5579789,72.3352297 18.7067113,72.1832689 18.8759366,72.0431436 L18.7945986,72.0192611 L18.7945986,72.0192611 C18.5457254,71.9499382 18.4918521,71.6553159 18.6505141,71.4727092 Z M30.9161408,47.5448152 C31.3390986,47.5454677 31.8317746,47.9428063 31.7776901,48.4067202 L31.7613565,48.5355297 C31.6396394,49.4187309 31.3559616,49.9188162 30.4722676,50.3291624 C29.7224789,50.6768337 28.9348732,50.8689511 28.1130423,50.9450372 C27.8020563,50.9737808 27.4729014,50.9754716 27.1393099,50.9507436 L27.0690575,51.3561764 C26.9294435,52.1669999 26.8004064,52.978378 26.7761408,53.804818 C26.7309296,55.3368963 27.3024085,56.5995029 27.9152958,57.967362 C29.0918451,60.5948689 29.2240986,63.217726 27.9431831,65.8414286 C27.7557887,66.2250294 27.2252958,66.5378278 26.7972676,66.4989393 C26.2422676,66.448638 25.974169,66.2880117 25.6513521,65.8414286 C25.3801977,65.4664328 25.4422166,64.93638 25.6299823,64.5442445 L25.6513521,64.5012564 C26.2967746,63.250274 26.5002254,61.8369746 26.1706479,60.4619295 C25.8609296,59.1695225 25.1593099,58.0079413 24.846,56.7195499 C24.3355775,54.6208415 24.879169,52.5390411 25.9414225,50.7385479 C25.139662,50.5075421 24.3981127,50.0958317 23.9033239,49.46791 L23.9054366,49.4670646 L23.9054366,49.4670646 C23.7165634,49.265225 23.819662,48.8435812 24.1511408,48.8689432 L24.5260146,48.8992287 C25.5983373,48.9888912 26.5854172,49.0821447 27.6698028,48.783135 C28.225662,48.6296665 28.7055136,48.3738331 29.1827028,48.0640924 L29.2849437,47.9969119 C29.8819859,47.5999961 30.2130423,47.5439883 30.9161408,47.5448152 Z M33.482493,32.0332438 C36.170662,31.8804376 38.465662,33.655146 39.5813662,36.0176196 C40.7932666,38.5824509 40.2847667,41.5253798 39.2151293,44.0488603 L38.9112257,44.7551436 C38.3792982,45.9788103 37.6809305,47.4340007 36.591507,48.0905824 C35.3678451,48.8281949 34.3100282,47.9728603 34.6708732,46.6132438 C34.8859437,45.8035609 35.4679859,45.1790207 35.9389014,44.5107311 C36.378338,43.8866137 36.7884085,43.2407272 37.1479859,42.5669425 C37.8523521,41.2455804 38.3781972,39.7733143 38.372493,38.2594121 C38.3625634,35.4962184 36.5376338,32.3295569 33.482493,32.3701362 C33.2642535,32.3726724 33.2678451,32.0452908 33.482493,32.0332438 Z M47.0781761,27.5746826 C46.9106408,27.4474497 47.0604296,27.1644517 47.2478239,27.2838646 C50.3650775,29.2671757 52.6926127,32.9926474 53.1612042,36.6526004 C53.4212746,38.683254 53.2226831,40.8533988 52.3581761,42.7274419 C51.862331,43.8027922 51.0113451,44.8293205 49.8214859,45.1241542 C48.7275423,45.3948939 47.600007,44.7699311 47.2605,43.7017667 C47.1288803,43.2873088 47.3553592,42.8538294 47.6974014,42.6274732 C48.8065563,41.8938763 49.6995845,40.968162 50.2220493,39.7228861 C50.7656408,38.4281542 50.9824014,37.0541659 50.9889507,35.6575632 C51.005007,32.3869174 49.7002183,29.5681386 47.0781761,27.5746826 Z M85.1571338,28.9922301 C85.012838,28.832238 85.1943169,28.596371 85.3853028,28.6965511 C87.6388944,29.8822262 89.0708662,32.1533965 89.4811479,34.6407781 C89.8831901,37.0759562 89.3423451,40.3911969 87.4580493,42.1523789 C86.3947394,43.1465706 84.4899507,41.8243632 85.3738944,40.5437918 C85.9971338,39.640692 86.6708662,38.8969503 87.0276972,37.8298427 C87.3458662,36.8777096 87.4584718,35.9175452 87.4411479,34.9170129 C87.403331,32.7341871 86.6237535,30.6196274 85.1571338,28.9922301 Z M57.6041408,25.9428258 C61.454493,25.7593738 63.7879437,30.1565166 64.3224507,33.4339256 C64.6524507,35.4588728 64.4044225,37.5444775 63.2868169,39.3007984 L63.2206988,39.403045 C62.2985606,40.8060881 60.6219829,42.421456 58.8155493,41.7571115 C58.0509718,41.476227 57.8475211,40.6568219 58.3611127,40.0352407 C59.1470282,39.0837417 60.3618169,38.6959139 61.100831,37.679953 C61.9298451,36.5405636 62.2015352,35.1131037 62.1535775,33.7274912 L62.147063,33.5744352 C62.0186047,31.0256843 60.8033577,26.1337512 57.6041408,26.2203288 C57.4247746,26.2249785 57.4268873,25.9510685 57.6041408,25.9428258 Z M69.647831,25.2122301 C73.3720563,24.7360579 75.6400141,29.1190403 76.3395211,32.1383906 C76.7764225,34.0259601 76.8719155,36.1316431 76.3131127,38.0050521 L76.2714609,38.1385059 C75.8165893,39.536682 74.4745752,41.932312 72.7226197,41.2177879 C72.2426197,41.0220775 71.7526901,40.4888407 71.9825493,39.9139679 C72.276,39.1791029 72.6995915,38.988465 73.2640986,38.5182106 C73.6988873,38.1561675 74.0024789,37.6364571 74.226,37.1245667 C74.8213521,35.7603006 74.9540282,34.166508 74.8726901,32.6963554 L74.8614852,32.5223534 C74.6510774,29.6507867 73.0946704,25.3712924 69.647831,25.4499992 C69.4904366,25.4535922 69.5012113,25.230829 69.647831,25.2122301 Z M76.4660704,21.0917025 C78.5388169,20.3020978 80.2369859,22.284775 81.4285352,23.6997652 C82.9211408,25.4727828 84.2751549,27.3827554 85.0405775,29.5898865 C85.722338,31.556501 85.842338,33.7431311 85.2281831,35.7450411 C84.924169,36.736274 84.450507,37.6554364 83.8040282,38.4644853 L83.7214918,38.5665311 C83.0486593,39.3872578 82.399111,39.8915764 81.2969155,39.5977456 C80.8483944,39.47791 80.6588873,39.0342857 80.7364225,38.610317 C80.9024789,37.7044697 81.369169,37.4692368 81.9736056,36.8368767 C82.5066338,36.2791233 82.9021268,35.5922348 83.1681127,34.8700509 C83.7165634,33.3802427 83.7450845,31.7661605 83.3768451,30.2313346 C82.9649225,28.5131272 82.1540185,26.9264515 81.2158853,25.4396162 L81.0135098,25.1211489 C80.0195772,23.5492277 78.6023137,21.1284994 76.5055775,21.3835773 C76.326,21.4055577 76.3236761,21.1458082 76.4660704,21.0917025 Z" id="ðŸ–-Ink" fill="#000000"></path>
                    </g>
                    <g id="face/Concerned-Fear" transform="translate(112.183099, 77.354207)" fill="#000000" fill-rule="evenodd">
                        <path d="M35.2163239,43.9467429 C37.7242667,43.9467429 38.7863239,44.3546489 40.4179437,45.3137566 C42.0495634,46.2728642 43.7937465,47.5090838 44.2063944,49.3609033 C44.5913239,51.0863671 43.8339296,52.7676587 42.1575211,53.4258035 C41.2199155,53.7941871 30.4157203,54.6565265 28.7209014,54.769146 C27.0260825,54.8817655 25.4085634,54.7426004 24.3201972,53.6134826 C21.5080141,50.6957918 25.4132958,46.9130442 27.9087887,45.5162301 C30.1370282,44.268418 32.7083812,43.9467429 35.2163239,43.9467429 Z M34.6362741,45.9144524 C32.7498148,45.9144524 29.6593521,47.2947828 29.6593521,47.9668368 C29.6593521,48.6388908 38.6666731,47.9717055 38.8598211,47.3967871 C39.0529691,46.8218687 36.5227334,45.9144524 34.6362741,45.9144524 Z M36.0875289,30.5120405 C37.6828906,31.482148 40.1137318,33.7442494 38.3974899,36.149264 C36.3773089,38.2698449 33.4687045,35.8384541 32.0353946,34.7388307 C30.7063626,33.8866164 29.2131206,36.0784478 30.4461973,37.0735516 C40.8033244,44.7445605 45.006466,30.7657101 36.8944406,29.3714319 C36.0012775,29.2177885 35.6695544,30.2119271 36.0875289,30.5120405 Z M18.0721479,21.7197299 C20.7894718,19.7127476 24.8542606,21.2575068 25.5239789,24.3975382 C25.9894014,24.6424932 26.2427113,25.0320117 26.2978521,25.6022348 L26.3115845,25.7448963 L26.3115845,25.7448963 C26.3772887,26.422274 25.7747535,27.0635108 25.1724296,27.2421018 C24.4944718,27.4428845 23.9578521,27.3391115 23.3284859,27.0510411 C22.7251742,26.7746635 22.5152664,25.9910822 22.6248161,25.3948896 L22.6346831,25.3456556 C22.7958803,24.6057182 22.1616549,23.888818 21.5234155,23.5956751 C20.8032042,23.2649119 19.9951056,23.4720352 19.3689085,23.9103757 C18.6736268,24.3966928 18.0953873,25.2285675 17.8997535,26.0574834 L17.8803207,26.1435529 C17.7260104,26.8591327 17.6100803,28.2016405 18.3041197,28.6127084 C18.4270775,28.6852016 18.3394014,28.8517456 18.2124296,28.8297652 C16.7044014,28.5717065 15.8063028,27.6641683 15.7970675,26.0407867 C15.7875,24.3216634 16.7105282,22.7253346 18.0721479,21.7197299 Z M43.0943873,21.1485769 C45.8081197,20.185665 49.2019225,22.7723812 48.1565704,25.760029 C47.4701239,27.7216239 44.815333,26.9352409 45.0626202,24.969073 L45.071007,24.9091327 C45.2284014,23.8861973 44.4538944,23.4036845 43.5044577,23.7393088 C42.0972042,24.2370387 41.338331,26.4490309 41.9976972,27.7395358 C42.0786127,27.8980485 41.8523451,28.032256 41.7581197,27.8794497 L41.6677052,27.7342118 C40.9314812,26.5611615 40.259756,25.695277 40.5017113,24.1968822 C40.7243873,22.815708 41.7809366,21.614393 43.0943873,21.1485769 Z M37.590507,14.0374004 C37.5835352,13.9053065 37.7225493,13.816328 37.8412817,13.8461284 C38.8059296,14.0889699 39.6790986,14.7906528 40.5575493,15.2459014 C41.5162817,15.7425746 42.4982535,16.1439288 43.5393803,16.4381284 C44.5538873,16.7247194 45.5789577,16.8675922 46.6336056,16.8587155 C47.774662,16.8492047 48.8914225,16.4207977 50.010507,16.4560932 C51.6930423,16.5091421 52.5721268,18.9565785 50.9151549,19.7977526 C48.5024789,21.0221049 44.9242394,20.1325315 42.5774789,19.1146685 C40.6885352,18.2952634 37.7134648,16.3590834 37.590507,14.0374004 Z M25.3353803,14.5969714 C26.2155211,13.4632885 27.9962958,13.3952337 28.7777746,14.7309675 C29.5850282,16.1110849 28.6148873,17.4947953 27.2431268,17.7803295 C24.7398169,18.8998521 22.1758732,19.7566661 19.4416479,20.111946 L19.0713135,20.1586067 C16.6916794,20.4482334 13.6884718,20.6061992 11.5381268,19.5081182 C11.327493,19.4003295 11.3912958,19.0792885 11.6021408,19.0190536 C12.8143944,18.6722278 14.172,18.6730732 15.4186901,18.4454489 C16.6045352,18.2292376 17.780662,17.989989 18.9354507,17.6393589 C21.2169296,16.9463413 23.3786197,15.9559538 25.3353803,14.5969714 Z" id="ðŸ–-Ink"></path>
                    </g>
                    <g id="facial-hair/*-None" transform="translate(104.577451, 109.479380)"></g>
                    <g id="accessories/*-None" transform="translate(88.521127, 88.978474)"></g>
                </g>
            </g>
        </g>
    </g>
</svg>