<?xml version="1.0" encoding="UTF-8"?>
<svg width="240px" height="324px" viewBox="0 0 240 324" version="1.1" xmlns="http://www.w3.org/2000/svg" xmlns:xlink="http://www.w3.org/1999/xlink">
    <!-- Generator: Sketch 62 (91390) - https://sketch.com -->
    <title>peep-43</title>
    <desc>Created with Sketch.</desc>
    <g id="Introduction" stroke="none" stroke-width="1" fill="none" fill-rule="evenodd">
        <g id="variations" transform="translate(-1566.000000, -110.000000)">
            <g id="images" transform="translate(126.000000, 110.000000)">
                <g id="a-person/bust" transform="translate(1440.000000, 0.000000)">
                    <g id="body/Device" transform="translate(31.056338, 135.052838)">
                        <path d="M157.123585,62.3330771 C156.459782,60.5099695 157.429077,58.6915115 157.966754,56.9277933 C159.876824,50.8111045 161.962246,44.6942043 164.91281,38.9898599 C166.030415,37.0817894 164.191754,34.7408736 162.06112,35.2789714 C158.413585,35.7900164 154.652387,35.3831671 150.998514,35.1576564 C149.662246,31.6991202 146.095838,30.2644744 143.288937,28.2727092 C140.103655,26.2839029 137.005204,23.999629 133.692528,22.255989 C133.508303,20.6085135 131.511401,20.2001847 130.290275,21.378674 C126.936401,19.2915898 122.9145,19.6792063 119.319359,18.3117699 C116.587544,13.8944389 116.382579,9.2495688 115.659294,4.98802928 C115.344015,3.13043572 115.678977,1.3380991 114.410134,-0.318124462 C110.14781,-6.31518904 93.3064014,-8.9154317 87.0970352,-5.36157652 C83.7545704,-7.44696986 83.6740775,-3.67014012 83.143162,-1.33915773 C82.5530915,-0.17292681 82.2338662,1.14780117 82.3325282,2.53933151 C78.7422465,10.0412102 70.5283732,13.4327483 63.1722465,16.1800908 C62.2494296,15.2917855 60.9304859,15.4040125 60.0524577,16.1390888 C53.6764014,17.5257581 47.488162,19.9632611 42.1460493,23.7692571 C36.0767535,25.5450223 31.8023873,30.4832219 28.7115423,35.7781808 C28.3709789,36.3363569 28.2906972,36.9055233 28.3902042,37.4281926 C18.8854859,51.3661104 14.3491479,68.0520047 13.7119648,84.9046544 C7.59978169,88.5743295 16.6171056,121.540326 18.7162606,128.384271 C18.7183732,128.383425 18.7204859,128.38258 18.7225986,128.381523 C20.0844296,130.793453 21.6306972,137.675864 25.0388662,137.143472 C27.3767535,139.787887 31.1024577,139.267966 34.2750634,139.471073 C33.7583028,141.453962 34.0122465,143.722807 34.6272465,145.682236 C35.3546408,148.014697 38.9242183,148.093742 39.4304155,145.550776 C71.0242183,151.691347 103.440908,146.791825 135.389852,147.713523 C144.627317,147.779042 153.863937,148.064999 163.079218,148.723355 C164.376824,148.815926 165.692387,147.489492 165.604077,146.197085 C163.62281,125.110243 161.762176,97.3703061 159.546613,76.4899538 C159.02119,71.7280204 158.605627,66.9138834 157.123585,62.3330771 Z" id="ðŸŽ¨-Background" fill="#FFFFFF"></path>
                        <path d="M83.6642324,-4.06010254 C83.7548662,-4.30738239 84.124162,-4.27462309 84.1311338,-3.99690881 C84.2766972,1.93210098 82.8012042,9.17740039 78.058669,13.1822771 C75.6241978,15.2380699 72.405587,16.1789162 69.4497852,17.2600198 L69.1163451,17.3830755 L63.8942324,19.329189 C62.509162,19.8453065 61.0150775,20.6393495 59.7916268,19.910191 C60.7816268,22.3660814 61.6127535,24.8896039 62.8184577,27.2565159 C64.3193028,30.2029503 66.1338803,32.8987233 68.3547254,35.350598 C77.1531761,45.0640462 91.0778239,48.0269659 103.573669,45.1809229 C110.008246,43.7152086 116.269585,40.9376431 120.659514,35.8715765 C123.995852,32.0207742 125.912683,26.8524141 126.364373,21.7544337 C126.232331,21.7755687 126.093951,21.7747233 125.951768,21.7434434 C124.370727,21.3984471 122.774617,20.5506404 121.383364,19.7192097 L121.249373,19.6388172 C119.910782,18.8327272 118.51557,17.9089151 117.554937,16.6564532 C116.918895,15.82727 116.267124,14.0602317 115.599624,11.3553382 C115.326852,9.83051282 115.070998,6.79273503 115.114796,5.25135734 C115.11881,5.10594834 115.76381,5.02014012 115.832683,5.17125558 C116.428656,6.47977808 116.621363,9.35487272 117.081403,10.7167772 L117.174232,10.9886724 C117.66543,12.4108485 118.086697,14.1424415 119.105218,15.2921871 C121.017401,17.4511303 123.902472,18.365009 126.477613,19.4477566 C126.662472,17.0077174 130.558246,17.0645706 130.50881,19.6094395 C130.506063,19.7474513 130.499937,19.884829 130.495077,20.022418 C130.802313,20.1913926 131.097784,20.3846196 131.374004,20.5710702 L131.643528,20.7541127 C132.663528,21.4481871 133.691345,22.1078114 134.777472,22.6966333 C136.880218,23.8368681 139.106345,24.7408133 141.260852,25.7757957 C143.4405,26.8230364 145.479021,28.0706372 147.382331,29.563827 C148.276275,30.264964 149.133471,31.0117424 149.946434,31.8053017 L150.167049,32.0228877 C150.940923,32.7938935 151.947824,33.6559914 152.388739,34.6692047 C152.485923,34.892602 152.972778,35.4122112 153.236962,35.429538 C157.330488,35.6980154 161.415279,36.0771291 165.483106,36.6455413 C166.536275,36.7926411 166.952559,37.335635 166.56328,38.2137605 C165.225534,41.23142 159.988458,53.282825 158.595782,56.5171186 C158.758458,58.8931186 158.538739,61.6903397 158.685359,64.0669738 C158.899796,67.5352321 159.18057,71.0022223 159.51712,74.4607585 C160.721345,86.8325706 162.546908,99.1441479 164.196486,111.461854 C165.02212,117.62652 165.774866,123.800273 166.517894,129.975295 C166.893106,133.095882 167.211486,136.219639 167.456556,139.353541 C167.558641,140.659348 167.651261,141.966101 167.732901,143.273369 L167.803262,144.432916 C167.900126,145.892161 168.123657,147.285704 167.220993,148.538191 C166.811768,149.106301 165.87712,149.426285 165.339021,148.780821 C164.662542,147.969447 164.411134,147.363295 164.346486,146.297455 C164.297049,145.481643 164.285218,144.662027 164.248035,143.845369 C164.167754,142.075099 164.066768,140.305674 163.948458,138.537306 C163.712472,135.002261 163.443106,131.46785 163.131063,127.938723 C162.037331,115.56353 159.958669,103.281541 158.5755,90.936782 C157.878317,84.7133613 157.383106,78.4783162 157.120923,72.2204454 C156.989725,69.09542 156.94219,65.9706059 156.973035,62.8428329 C156.984655,61.6744885 157.040007,60.5116391 157.120077,59.351326 C155.047965,64.0604219 152.869585,68.7240775 150.59212,73.3258074 L150.052289,74.4156302 C148.609003,77.3241716 147.1269,80.2436434 145.392316,82.9857159 L145.094202,83.4530865 C144.391355,84.566892 143.431353,86.3229973 142.149866,86.6744806 C141.257261,86.9194356 140.166486,86.7469738 139.251275,86.7294317 C138.343035,86.712101 137.433739,86.7082967 136.526134,86.6715217 C135.508035,86.6305198 134.536627,86.496735 133.552754,86.2312791 C133.389232,86.1873182 133.234585,86.139553 133.093669,86.0786841 C132.102401,87.7014317 130.418176,88.9374082 128.696134,89.6574787 C127.31679,90.2342425 125.871146,90.6296268 124.423064,90.9956242 L123.911979,91.123827 C122.359585,91.5108094 120.583669,91.6946841 119.708176,93.1944258 L119.504793,93.5420367 C118.853889,94.6483367 118.229402,95.619928 117.152049,96.4130795 C115.992401,97.267146 114.618528,97.8041871 113.249937,98.222238 C111.848599,98.650011 110.414596,98.9776215 108.991704,99.3284672 L108.603951,99.4248211 C107.664655,99.660054 106.716908,99.8758427 105.783106,100.131788 C105.384866,100.240845 104.979444,100.353283 104.588599,100.487702 C104.130993,100.644946 103.798458,100.890535 103.437401,101.157682 C103.112894,102.291788 101.725923,102.907663 100.5855,102.828618 C99.9865563,102.787193 99.4493028,102.583874 98.9604296,102.28587 C98.1071197,103.012492 97.1676127,103.663451 96.2978239,104.336602 C95.0798662,105.279224 93.8570493,106.215295 92.6274718,107.1427 C90.0922606,109.054363 87.5378239,110.940665 84.9567676,112.789768 C80.3754296,116.072038 75.695007,119.204038 70.9345141,122.220007 C68.9496549,123.477541 66.9514859,124.732962 64.933669,125.958371 L65.1490133,126.03823 L65.5761338,126.199733 C66.5857817,126.576782 67.7107817,127.186105 67.9064155,128.364383 C68.0614859,129.298974 67.5396549,129.943169 66.6172606,130.057299 C65.520993,130.192774 64.6678944,129.417964 63.9852887,128.678238 C63.6840211,128.352124 63.346838,128.049048 63.0582465,127.713213 C62.9405704,127.576046 62.8501479,127.417956 62.7705,127.252258 C60.7791891,128.42613 58.7666363,129.560563 56.7222071,130.621314 L56.2104296,130.884946 C51.1406408,133.478426 46.2060634,136.319819 41.0931761,138.839537 C39.7594437,139.496837 38.1333169,140.207819 36.4383169,140.693079 C36.8881056,142.437142 36.8811338,144.351976 36.8925423,146.122034 C36.9033169,147.847076 34.1629648,147.838833 34.2208521,146.122034 L34.2487365,145.293018 C34.2986338,143.898805 34.3801479,142.451584 34.7107817,141.095068 C29.7167113,141.923645 24.7277082,140.122902 23.7988099,139.582222 C22.7735282,138.985792 21.8428944,138.031334 21.0683873,137.145987 C19.410993,135.250809 18.2608521,132.979216 17.2404296,130.693886 C15.0546549,125.799858 13.5060634,120.568516 12.3738803,115.336751 C8.1998662,96.0476548 9.99521831,75.4025354 16.7737394,56.9123436 C18.4672606,52.2924376 20.4666972,47.7744023 22.7578944,43.4199523 L23.0423925,42.8816404 C25.3287429,38.5754772 27.8698521,34.2857223 31.0976831,30.6212125 C34.4597958,26.8044376 38.6071901,23.8360227 43.1228239,21.5318818 C45.3265563,20.4074982 47.5940915,19.432962 49.9116972,18.5693847 C50.2839507,18.4305276 50.6587394,18.3060423 51.0343732,18.1874748 C53.4495845,16.6471538 56.3807113,15.1736196 59.3128944,15.2315295 C59.5121197,15.2351225 59.6735282,15.3107859 59.7939507,15.4247037 C59.9352887,15.4494317 60.0766268,15.4794434 60.2181761,15.5206568 C60.5306408,15.611326 60.8606408,15.9539249 60.8158521,16.3058231 L60.8006442,16.4229044 C60.7923845,16.4800856 60.7819648,16.5353495 60.7640915,16.5892438 C60.8688803,16.6048838 60.9717676,16.6298231 61.0725423,16.6642732 C63.8779648,15.8717096 66.6381761,14.6596157 69.3757817,13.6819092 L69.999234,13.4616702 C72.2920962,12.6578334 74.6444437,11.8699503 76.5252887,10.2791695 C78.3964859,8.69657847 79.8035282,6.64669198 80.8207817,4.43068415 C82.0740211,1.70046106 82.6351479,-1.25717495 83.6642324,-4.06010254 Z M139.831669,139.937185 C140.387092,139.523784 141.043923,140.003549 141.25181,140.515228 C141.934204,142.194406 141.597021,144.803737 140.63512,146.288473 C139.638359,147.82668 137.252514,147.219471 137.194838,145.356207 C137.134627,143.413263 138.263641,141.104895 139.831669,139.937185 Z M145.569317,93.5696571 C145.619176,93.3513323 145.958049,93.3534458 146.008754,93.5696571 C146.471203,95.5400155 146.460413,97.6618935 146.5962,99.6821127 L146.611923,99.9061503 C146.77481,102.133994 146.911711,104.367966 147.009317,106.599614 C147.200937,110.990416 147.429951,115.38143 147.686641,119.768851 C147.814035,121.944491 147.950514,124.119919 148.096077,126.294714 C148.551993,126.040459 149.021641,125.817274 149.508401,125.620295 C150.237697,125.325461 150.947768,125.291645 151.731359,125.299677 C152.685655,125.309399 153.404176,126.149094 153.277838,127.084319 C153.140092,128.102816 152.243683,128.539254 151.312838,128.393845 C150.281852,128.232373 149.24643,127.982346 148.205514,127.878784 C148.3215,129.560287 148.441289,131.241368 148.568261,132.921391 C148.736641,135.145853 148.956148,137.367566 149.110373,139.592874 C149.125162,139.80507 149.141007,140.017688 149.157275,140.230941 C149.777979,139.907998 150.437134,139.742722 151.184176,139.539191 L151.378536,139.484665 C152.463137,139.173051 153.623496,138.742213 154.627415,139.471771 C155.302204,139.962315 155.436993,140.769673 154.877979,141.416616 C154.030405,142.39827 152.776294,142.207849 151.605499,142.157797 L150.975663,142.134812 C150.382036,142.111439 149.834375,142.073468 149.285725,141.923645 C149.3865,143.373297 149.439528,144.828444 149.261852,146.25696 C149.165725,147.029023 148.149739,147.231708 147.880796,146.443794 C147.178331,144.385454 147.03319,142.165641 146.776077,140.009657 C146.536001,137.996065 146.390034,135.967801 146.232782,133.94519 L146.185162,133.338596 C145.8315,128.888827 145.548613,124.436733 145.341993,119.977876 C145.135162,115.519653 145.010937,111.062276 144.9615,106.599614 C144.939029,104.573341 144.972605,102.539732 145.05191,100.513713 L145.077063,99.9061503 C145.168331,97.8224477 145.104528,95.611301 145.569317,93.5696571 Z M52.7333451,140.265687 C52.7603873,139.980998 52.9883451,139.627198 53.3274296,139.67137 C53.6398944,139.711949 53.9618662,139.692505 54.2709507,139.744074 C54.6789085,139.811706 55.0072183,140.052857 55.3866549,140.204607 C56.0033451,140.451252 56.6755986,140.578697 57.3083451,140.780536 C58.4954577,141.159487 59.1423592,142.409624 58.6507394,143.577123 C58.1337676,144.804434 56.8346831,145.082994 55.7122183,144.567933 C54.8274452,144.16211 54.1679663,143.513265 53.5730499,142.762377 L53.4044975,142.548251 C53.1481299,142.225635 52.8571727,141.865696 52.7496127,141.474822 C52.6450352,141.093969 52.6965845,140.653092 52.7333451,140.265687 Z M110.408831,134.495887 C111.88746,134.287629 113.150371,134.7933 114.518574,135.269959 L114.629746,135.308529 C116.022211,135.789351 118.053972,136.122228 118.767634,137.547997 C119.198197,138.40777 118.863761,139.549484 117.850521,139.80395 C116.245787,140.206485 114.806942,139.033173 113.480044,138.243332 L113.41031,138.202126 C112.129606,137.451621 110.807704,136.820741 109.989887,135.52622 C109.771648,135.180874 109.960944,134.559081 110.408831,134.495887 Z M58.7921197,16.8597722 C58.1997254,16.9925002 57.607331,17.1097996 57.0155704,17.2226607 C54.7645141,18.4296822 52.5795845,19.682144 50.2554296,20.7574943 C47.7895141,21.8985746 45.3326831,23.0770638 42.9903592,24.4573926 C38.2581761,27.2461597 34.3571197,30.8720853 31.1335986,35.3165706 C25.5654296,42.9938701 21.4235282,51.8475452 18.4592324,60.8309894 C17.6976127,63.1389346 17.0160634,65.4728759 16.4131056,67.8264728 C17.479162,66.840101 18.7412746,66.233737 20.1565563,65.7144493 C20.7563451,65.4944337 21.5029648,65.8668329 21.8069789,66.3863319 C21.943669,66.6196626 22.0207817,66.8504571 22.0066268,67.1241558 C21.9751479,67.7281949 21.5821901,68.4144493 20.9335986,68.5340736 C19.4215563,68.8128446 17.9513451,69.3555922 16.4933873,69.8332438 C16.2724014,69.905737 16.0824718,69.8782614 15.9307817,69.7928759 C14.4833873,75.9260501 13.5778944,82.1854004 13.2571901,88.4825824 C12.9859225,93.8136822 13.1532465,99.1866294 13.7435282,104.510332 C14.1971197,104.306379 14.6407817,104.115107 15.1381056,103.999287 C15.7831056,103.849228 16.4175423,103.666622 17.0466972,103.460344 C18.862331,102.864547 19.6905,105.863185 17.8347254,106.320124 C17.1440915,106.490261 16.4492324,106.631443 15.7455,106.734794 C15.1321901,106.824829 14.5896549,106.785095 14.0114155,106.690833 C14.4531761,110.012203 15.0565563,113.309479 15.8251479,116.559835 L15.9947462,117.271082 C16.9931258,121.422567 18.1567257,125.61275 19.8394437,129.535897 C20.6648662,131.460453 21.7577535,133.288211 23.1071197,134.892782 C23.7700775,135.681753 24.5059225,136.358074 25.3083169,136.998888 C25.9763451,137.532547 28.2471121,138.689681 30.9364648,138.689681 C33.6258175,138.689681 34.353875,138.435142 35.7107113,137.967929 C38.3940282,137.04406 40.941719,135.568983 43.4581718,134.25518 L43.7183873,134.119874 C44.8311338,133.543944 45.9396549,132.959772 47.0452183,132.370105 C46.9055704,131.242551 47.150007,130.29549 47.737331,129.253956 C48.3721822,128.127348 49.9452436,128.688489 50.0621865,129.840796 L50.0659225,129.884837 C50.083669,130.144586 50.1271901,130.409408 50.1812746,130.673385 C57.5737394,126.622434 64.8096549,122.287639 71.9304296,117.770661 C76.5172606,114.86079 81.0552887,111.864265 85.5269789,108.780031 C87.7624014,107.23823 89.9783873,105.668743 92.1724014,104.068398 C93.3216972,103.229972 94.4657113,102.384993 95.6044437,101.532618 C96.0787394,101.177549 96.5439507,100.804727 97.0193028,100.447757 C96.9037394,100.303193 96.7911338,100.158841 96.6821197,100.015968 C94.9070493,97.6911147 93.7554296,94.9198896 93.1816268,92.0609542 C92.8351479,90.3359131 92.6678239,88.5451421 92.6169085,86.7862849 L92.594518,86.0215961 C92.5594437,84.7330051 92.5502887,83.3845315 92.7876127,82.1361558 C92.4645845,82.31369 92.1345845,82.4878427 91.8056408,82.6742536 C90.6252887,83.3431773 89.4438803,84.0106215 88.2605704,84.6748955 C85.890993,86.0045002 83.5144437,87.3188877 81.1076831,88.5802262 C76.8088099,90.8334317 72.4676831,92.9765237 68.0093028,94.8972751 L65.8399469,95.8326934 C62.0749024,97.4528508 58.2791143,99.0436816 54.3645845,100.247819 C52.1566268,100.926888 49.9319789,101.507256 47.692331,102.025486 L48.5980352,103.086888 C49.2121901,103.806747 49.2229648,104.838982 48.4381056,105.444923 C47.6665563,106.040719 46.6313451,105.792594 46.117331,105.001721 L45.1803592,103.55989 C44.9800775,103.251741 44.8664155,102.963036 44.8019789,102.658903 C43.7703169,102.874819 42.7359507,103.082213 41.6987721,103.282708 L39.7380439,103.657164 C36.9382801,104.197761 34.2237315,105.268135 31.721167,106.638023 C30.8511866,107.114244 30.6087965,106.18905 31.5305701,105.544408 C34.2258158,103.659491 37.3697139,102.592859 40.6135511,101.697746 L40.7728944,101.653933 C41.9629648,101.327819 43.1509225,100.987968 44.3363451,100.635858 C44.205993,100.164124 44.1307817,99.6746372 44.1457817,99.1348485 C44.179162,97.9324767 44.2854296,96.7258779 44.3492324,95.5243515 C44.4831761,93.0025198 44.6540915,90.4887194 44.8543732,87.9715374 C44.9312746,87.0018622 45.0174718,86.0294395 45.1161338,85.0578622 C44.4804629,84.7168763 43.9322042,84.2643537 43.223462,84.0417333 L43.1038099,84.0068172 C42.3457817,83.8024415 42.6016268,82.8253691 43.2749366,82.7416744 C43.8848662,82.6662223 44.491838,82.7008838 45.0931056,82.8300188 C45.1862746,82.8503084 45.2743732,82.8729229 45.3584577,82.8984963 C45.4689507,81.9985667 45.5914859,81.100962 45.7307113,80.2084297 C46.0989507,77.8501832 46.3594437,75.3655491 47.1259225,73.0996626 C47.1827535,72.9318505 47.431838,72.871827 47.524162,73.0476705 C48.639208,75.1697087 48.6779925,77.7728346 48.8036607,80.1359277 L48.8192324,80.4183006 C48.967331,82.9963515 48.9757817,85.599553 48.9280352,88.1811969 C48.8790211,90.8416744 48.7879648,93.4953886 48.6685986,96.1535413 C48.6206408,97.2238192 48.6225423,98.3342536 48.4402183,99.3578231 C55.0757113,97.1999366 61.5939507,94.6170247 67.8417676,91.5585746 C72.2490211,89.4013221 76.6182465,87.1576274 80.9376127,84.8296039 C83.101838,83.663373 85.2762042,82.5159523 87.4381056,81.345283 C88.1955704,80.9349816 88.9524718,80.5233652 89.7090603,80.1110599 L90.8437394,79.4921636 C91.9055704,78.9124297 92.791838,78.3356548 94.0285986,78.2950755 C94.3972606,78.2828172 94.7278944,78.4557018 94.9626127,78.7171421 C95.6272606,78.2456196 96.3954296,77.9560697 97.2016268,77.9628329 C98.4151479,76.2859796 99.6472606,74.6228642 100.928387,72.9958896 L101.874853,71.791307 C103.513017,69.7131289 105.248294,67.6034245 107.33719,66.0215413 C108.269514,65.3158427 109.295007,64.7864102 110.364444,64.3489151 C110.112824,64.2874121 109.866486,64.1637722 109.646979,63.9600305 C108.6255,63.0125472 108.484796,61.2526333 108.277331,59.9304258 C108.062049,58.5593965 108.145289,57.3322967 108.357824,55.9657057 C108.44043,55.4345824 109.319725,55.3240462 109.534373,55.8118427 C109.986678,56.84035 110.465697,57.8260634 110.877303,58.8661625 L110.998669,59.1799209 C111.44043,60.3508016 112.381415,61.5825511 112.319303,62.8527663 C112.302401,63.2008603 112.185782,63.5041479 112.005782,63.7480462 C112.903458,63.4498309 113.814021,63.1839523 114.710641,62.9066607 C117.532542,62.034418 120.365218,61.186692 123.241415,60.5099483 C124.007049,60.3298779 124.776486,60.1626998 125.549092,60.0092595 C125.95388,58.0868172 126.543739,56.1998818 127.239232,54.3469738 C126.580711,54.0094474 126.154373,53.4436626 125.587331,52.9404376 C125.056627,52.4691264 124.691979,51.8953104 124.239232,51.3542536 C123.827049,50.8620188 124.058599,49.9726568 124.799303,50.0014004 L125.009162,50.0102159 C125.776517,50.0458691 126.519743,50.1252693 127.21557,50.4834904 L127.463441,50.611337 C127.803477,50.7879786 128.175613,50.9902661 128.507049,51.2293456 C128.940324,50.2319483 129.390911,49.2440912 129.846339,48.2662634 L130.43727,47.0017942 C131.96944,43.710664 133.497388,40.2942928 135.420993,37.2297135 C136.276204,35.8673495 137.414303,35.0166646 139.047824,34.8849933 C140.729937,34.7495178 142.47881,34.9245159 144.163246,34.9847507 C146.115993,35.0547076 148.068106,35.1375569 150.018951,35.2400618 C149.51888,34.7161245 149.062542,34.1327977 148.560359,33.6299953 C147.726697,32.7962184 146.845923,32.0057683 145.920148,31.2751303 C144.087824,29.829283 142.073176,28.6379014 139.98057,27.612007 C137.887542,26.5859014 135.733035,25.6912556 133.768246,24.4235765 C132.524937,23.6215022 131.413669,22.6120932 130.399796,21.5198348 C129.761556,28.4077409 126.436838,34.8070051 121.442049,39.6148016 C116.254162,44.6079523 109.085007,47.3512791 102.071768,48.518144 C94.9182465,49.7084689 87.4522606,49.2716078 80.6090915,46.7842262 C77.0807113,45.5015413 73.6966268,43.6691342 70.678669,41.3706998 C70.6455,41.5706372 70.6055704,41.7682497 70.5271901,41.9540266 C70.4220053,42.2036841 70.2933664,42.416286 70.1458026,42.635583 L69.8827476,43.0203881 C69.7167762,43.2622332 69.5476328,43.5021373 69.3593028,43.7266215 C68.9031761,44.2700031 68.2569085,44.5079836 67.5607817,44.5054474 C66.2278944,44.501009 65.2184577,43.1935961 65.5771901,41.900555 C65.8026127,41.0879131 66.2849366,40.5988485 67.0378944,40.2807663 C67.2758662,40.1801636 67.5184352,40.0959278 67.7623563,40.0130176 L67.9455,39.9508485 C68.1920493,39.8665198 68.4366972,39.7859953 68.6904296,39.7392869 C67.2614155,38.4775256 65.9355,37.1054395 64.7481761,35.6247194 C61.024162,30.9811421 57.3510634,24.4776822 58.5960634,18.310692 C58.6176127,18.2048055 58.7128944,18.1382301 58.8155704,18.1213221 C58.8878239,17.6884767 59.1181056,17.2697918 59.4335282,16.9882732 C59.2212042,16.9324767 59.0071901,16.8893613 58.7921197,16.8597722 Z M97.4622887,123.484896 C98.1998239,123.074665 98.9616549,124.049624 98.3622887,124.651761 L97.4674184,125.547387 C96.636923,126.382311 95.8285897,127.226197 95.1176408,128.177718 L94.9454975,128.410291 C93.9859048,129.716275 92.9625957,131.229525 91.3902465,131.717624 C89.4884155,132.307926 87.6607394,129.99047 88.7620775,128.297554 C89.7241901,126.818102 91.5767958,126.259926 93.1739789,125.648278 C94.6849648,125.069601 96.0497535,124.270485 97.4622887,123.484896 Z M36.1099859,116.65769 C36.5432958,116.090214 37.6731549,116.389064 37.377169,117.192195 C36.4156901,119.799835 36.0237887,123.355592 33.5954789,125.088031 C32.8120986,125.646629 31.5814648,125.389839 30.9364648,124.744798 C30.2035775,124.011623 30.1742113,122.979177 30.5933662,122.084743 C31.1045655,120.993635 32.3619014,120.202571 33.2432539,119.371441 L33.3223099,119.295764 C34.2704789,118.374488 35.2959718,117.723741 36.1099859,116.65769 Z M137.600242,119.658867 C138.373651,119.32536 140.389458,118.676895 140.986817,119.44447 C141.014704,119.47258 141.038577,119.503226 141.057803,119.537042 C141.204211,119.79193 141.225972,120.151014 141.057803,120.403789 C140.361684,121.450313 139.636687,122.23153 138.646971,122.976362 L138.535901,123.058983 C137.458437,123.851335 136.446254,124.782122 135.133437,125.139515 C133.313789,125.634921 132.042803,123.355719 133.320761,122.024846 C134.350338,120.952748 135.922073,120.396062 137.28633,119.798216 L137.600242,119.658867 Z M64.5261549,104.758859 C64.2217183,104.208714 64.8436901,103.53345 65.4069296,103.877739 C67.0136197,104.860095 68.8852394,105.597074 70.6898873,106.126506 C71.4202394,106.340816 72.0791831,107.081387 72.0248873,107.880503 L72.0163784,108.001499 C71.9948741,108.283832 71.9559613,108.564141 71.7766479,108.79882 C71.1481268,109.621184 70.2489718,109.937998 69.2887606,109.451258 C67.148831,108.366608 65.6841127,106.852283 64.5261549,104.758859 Z M111.486169,103.092235 C111.447085,102.860806 111.61631,102.682215 111.851451,102.72681 C113.209268,102.984235 114.463352,103.640266 115.629338,104.394364 C116.25469,104.798888 116.857859,105.243147 117.481732,105.651687 C118.252437,106.155969 118.541028,106.57254 118.654901,107.498254 C118.730113,108.109057 118.159901,108.667022 117.637014,108.835679 C116.211847,109.295375 114.579007,107.786838 113.613535,106.806722 L113.570113,106.762544 C112.559408,105.732 111.725746,104.513354 111.486169,103.092235 Z M152.267387,101.491193 C151.95788,100.655091 153.02457,99.9618622 153.722176,100.372516 C154.379007,100.759076 155.091613,101.079694 155.711261,101.522684 C156.28065,101.92998 156.799795,102.412422 157.345852,102.853932 L157.6157,103.067642 C158.617092,103.872937 160.270046,105.864782 158.838232,107.020117 C157.475468,108.119797 155.668677,106.71538 154.754003,105.688568 L154.690204,105.615905 C154.163937,105.00785 153.515134,104.347169 153.133373,103.636821 C152.774007,102.96832 152.530204,102.200907 152.267387,101.491193 Z M138.828528,36.7657996 C137.121697,37.0971969 136.425993,39.204782 135.707261,40.5785589 C134.010993,43.8206724 132.450993,47.1221753 130.884232,50.4279053 C130.401908,51.4447115 129.932261,52.4693378 129.458387,53.4920618 C129.429444,53.5721636 129.392261,53.6509973 129.348528,53.7289855 C128.377754,55.819874 127.378035,57.8970247 126.209514,59.8818153 C127.278951,59.6814552 128.35388,59.5106841 129.432824,59.3762654 C129.378393,58.359964 130.074011,56.9998555 130.418091,56.1443038 L130.446697,56.0722262 C130.875782,54.9757409 131.32557,53.2485863 132.430077,52.6796313 C132.798106,52.4902614 133.191697,52.7276078 133.220007,53.1329777 C133.303669,54.3397879 132.123739,55.720962 131.546979,56.7451656 C131.198176,57.3648446 130.858246,57.9872712 130.526979,58.6164611 C130.402754,58.8519053 130.299021,59.0833339 130.171627,59.2908798 C130.728106,59.230645 131.285218,59.176962 131.84381,59.1378622 L132.207831,59.1129447 C134.278706,58.9763736 136.478164,58.9373613 138.349162,59.9589581 C140.085148,60.9064415 140.972472,62.9292751 140.01881,64.771193 C138.830641,67.0658231 136.214303,67.3699562 133.913599,67.5559444 C131.039937,67.7877957 128.159725,68.2064806 125.306345,68.6148094 C122.354937,69.0370873 119.575711,70.1255413 116.668246,70.6849855 C116.397824,70.7369777 116.229444,70.3831773 116.477472,70.2320618 C118.77091,68.8355815 121.559075,68.0670699 124.123111,67.2842581 L124.3305,67.2207429 C125.721275,66.7933926 127.08057,66.3051734 128.519303,66.0627546 C129.915993,65.8275217 131.321345,65.6368838 132.730077,65.4918975 L132.866892,65.4792511 C134.417934,65.3491518 138.374835,65.3935815 138.207613,63.0962419 C138.096908,61.5757879 135.626345,61.3132908 134.498599,61.2951147 C129.328035,61.2122654 124.120289,62.5851969 119.206415,64.0561949 L118.109426,64.385238 C116.097284,64.9908935 114.082315,65.6140092 112.108035,66.3239836 C109.870711,67.1283828 108.108106,68.3827468 106.478599,70.0995452 C104.671838,72.0031773 102.921908,73.9497135 101.047542,75.7890951 C99.8659225,76.9487742 98.6690915,78.0877409 97.4625423,79.2174082 C97.190007,79.5703632 96.9719789,79.9543867 96.8209225,80.4525393 C96.5657113,81.2941362 96.6244437,82.0763436 96.7207817,82.9407663 C96.9637394,85.1238035 97.0174014,87.3294552 97.321838,89.5057292 C97.6040915,91.5217996 97.9987394,93.6118427 98.8355704,95.4820814 C99.1669305,96.2227321 99.5981887,96.950194 100.089307,97.6007293 L100.485709,98.1162608 C100.658512,98.3402039 100.851778,98.5852402 101.054725,98.8157096 C101.352613,98.4521871 101.783599,98.2156861 102.284514,98.2748642 C103.349092,98.4001949 104.185923,98.3701832 105.230218,98.1254395 C106.038528,97.936281 106.8405,97.7145746 107.645218,97.5093534 C109.225289,97.1060971 110.820148,96.739193 112.384162,96.2761245 L112.653035,96.195098 C113.818567,95.8374594 114.984489,95.38951 115.954585,94.6366802 C117.081697,93.7619014 117.428387,92.4999288 118.263317,91.4087272 C120.045993,89.0785902 123.898246,89.1274121 126.506556,88.4891342 C128.723233,87.9468744 130.856386,87.0911266 132.390396,85.4822359 L132.47991,85.3864063 C132.411908,85.0992869 132.52219,84.7752869 132.78881,84.6264963 L132.846908,84.5941597 C132.950852,84.5360384 133.062824,84.5119444 133.172683,84.5142693 C133.315077,84.3050325 133.452401,84.0890325 133.577261,83.8590834 C133.679937,83.6695022 133.936627,83.8089933 133.903035,83.9962497 C133.882965,84.108054 133.855077,84.2171108 133.828669,84.3263789 C135.31462,83.9440462 136.94653,84.0170583 138.45522,84.0180235 L140.413091,84.0111736 C140.751922,84.0070102 141.256944,83.9899998 141.301838,83.9696196 L141.347874,83.9491564 C141.469942,83.8961378 141.296633,83.9836648 141.381908,83.8704963 C141.475923,83.7455883 141.568035,83.6192008 141.65888,83.4917566 C141.983387,83.0375648 142.290359,82.5696352 142.591204,82.0974787 C139.312542,82.9329464 135.916204,83.4528681 132.568458,83.8863476 C128.976908,84.3519523 125.338035,84.6748955 121.714373,84.6782771 C120.7155,84.6793339 120.724585,83.1707155 121.714373,83.1328838 C125.551415,82.986418 129.368387,82.783099 133.179655,82.2912869 C135.15057,82.0366098 137.113246,81.7172595 139.064937,81.3435922 C139.818401,81.1997049 140.570108,81.0467549 141.31995,80.8851751 L141.881979,80.7623789 C142.234585,80.6843906 143.230923,80.5721636 143.716838,80.2460501 C143.812331,80.0818309 143.907824,79.9180344 144.002472,79.7540266 C143.955993,79.1780971 142.492331,79.2552399 142.149232,79.2543945 C141.176345,79.2524924 140.203246,79.2603123 139.230148,79.2628485 C137.284162,79.268555 135.338387,79.251647 133.39219,79.236007 C129.504021,79.2043045 125.601063,79.0686176 121.716063,79.2347389 C120.772965,79.2748955 120.277542,77.7618387 121.209655,77.3638661 C125.324725,75.6062771 129.892754,75.2243671 134.286697,74.6839444 C136.597331,74.400101 138.909232,74.0720853 141.168106,73.4972125 L141.726589,73.3550905 C143.145605,72.9911726 144.712567,72.5473919 145.907472,71.6802341 C144.111481,70.9534374 141.879072,71.0367295 140.017398,70.9338036 L139.874937,70.9255022 C137.268106,70.7652986 134.656627,70.6832947 132.044937,70.6794904 C126.701134,70.6720932 121.355641,70.861463 116.017754,71.114872 C115.88381,71.1212125 115.856134,70.9096509 115.986275,70.8813299 C121.472683,69.6838192 127.048669,69.1068329 132.663317,69.0180658 C135.278161,68.9766562 137.89428,69.013608 140.506938,69.1292596 L141.465565,69.1735956 C143.693135,69.2696237 146.164918,69.2955866 148.028599,70.641236 C148.312754,70.8462458 148.462542,71.1081088 148.485993,71.385189 C150.9855,66.4009151 153.294021,61.3124454 155.611838,56.2577918 C157.413739,52.3275217 159.148458,48.364281 161.016063,44.4646568 L161.620666,43.203095 C162.430263,41.5196849 163.259683,39.8360853 164.180641,38.2137605 C160.736768,37.7532282 157.273669,37.4334552 153.808458,37.1887115 C150.650965,36.9654129 140.348599,36.4709659 138.828528,36.7657996 Z M137.303535,90.7858568 C137.696282,90.5675319 138.297972,90.7454888 138.394732,91.2299037 C138.466775,91.5906787 138.589732,91.9911875 138.589732,92.3602051 C138.589732,92.8023499 138.431704,93.2827491 138.347408,93.7151718 C138.153676,94.7097863 137.915155,95.5179898 137.409592,96.4039703 C137.093324,96.9583421 136.454662,97.3347569 135.812831,97.3199624 C135.304521,97.3083382 134.854099,97.1718059 134.505296,96.7782716 C134.087408,96.3067491 133.800507,95.6133088 134.029732,94.9784125 C134.630155,93.3150857 135.733817,91.6578881 137.303535,90.7858568 Z M54.0013521,89.1264611 C54.9203662,87.5161832 57.0987465,86.077099 58.9997324,86.2195491 C61.854169,86.4334356 62.4366338,90.2783202 59.6730423,91.1957918 C58.0211408,91.7440344 55.7485352,91.1809973 54.3034648,90.2785315 C53.9138873,90.0354787 53.7710704,89.5299288 54.0013521,89.1264611 Z M24.6649225,83.6251609 C24.4561901,83.3216618 24.8011901,82.974836 25.1121761,83.0431022 C25.8019648,83.1946403 26.5456268,83.260793 27.2212606,83.4666481 C27.913162,83.677153 28.5828803,84.0263037 29.2682324,84.266609 C30.704007,84.7696227 32.2375986,85.0221863 33.6271056,85.629607 C34.1825282,85.8724485 34.6194296,86.6770591 34.5680915,87.2703194 L34.5549966,87.409062 C34.5242474,87.7034964 34.4732606,87.9603499 34.3086549,88.229427 C33.8664718,88.9518223 32.9903451,89.3250669 32.1634437,89.1027264 C30.6294296,88.6905933 29.1304859,87.631517 27.8225282,86.7516658 L27.5808314,86.5910354 C27.0093856,86.214301 26.3949137,85.8205356 25.9344296,85.3358301 C25.4537958,84.8296462 25.0587254,84.1983429 24.6649225,83.6251609 Z M77.3967887,77.768771 C77.220169,77.1326067 78.0113662,76.7122309 78.4725634,77.1421174 C79.3941127,78.001045 80.3577042,78.7974129 81.2602394,79.6781096 L81.3208384,79.7381333 C81.9671565,80.387845 82.907428,81.6399215 82.0668592,82.4806145 C80.9898169,83.5580783 79.4900282,81.9594247 78.9122113,81.1262818 C78.1793239,80.0695303 77.7396761,79.0045362 77.3967887,77.768771 Z M147.918951,72.5089386 C146.551838,73.9575335 144.4455,74.6234982 142.590993,75.1753339 C140.39212,75.8290403 138.126486,76.2196157 135.858528,76.5408681 C133.667049,76.8511303 131.492472,77.1286333 129.335852,77.4847585 C130.967261,77.5050481 132.598458,77.5170951 134.226063,77.5462614 C136.103176,77.5802888 137.979232,77.6208681 139.855711,77.6753965 C141.222401,77.7151303 142.825923,77.5276626 144.124585,78.0357487 C144.358669,78.1270521 144.577331,78.2538622 144.768317,78.4081479 C145.860148,76.4660501 146.906556,74.4971108 147.918951,72.5089386 Z M63.5934296,58.962674 C65.020331,58.5093276 66.3620915,57.9076133 67.8747676,58.0638012 C68.2768099,58.1050145 68.5647676,58.4966466 68.3452606,58.8834176 C67.6283873,60.1454687 66.4627375,60.8578476 65.315253,61.7019631 L65.2140634,61.7768031 C63.9580775,62.7113941 62.6095563,63.5629245 61.2437113,64.3299147 C58.8920915,65.6500086 56.7846972,61.8716994 59.1595563,60.7629558 C60.5885704,60.0957229 62.0896268,59.4407483 63.5934296,58.962674 Z M89.283507,55.6823906 C91.4665352,55.8261088 93.6482958,55.9237526 95.8340704,56.0120971 C98.3659014,56.114602 97.5147042,60.0121127 95.3997042,59.2233534 C93.3102676,58.4438935 91.2206197,57.6743671 89.1123803,56.9473221 C88.4706031,56.7261191 88.5222711,55.6716411 89.2427902,55.6807768 L89.283507,55.6823906 Z M33.291993,48.748537 C33.8577676,48.7088031 34.4284014,48.8324431 34.9950211,48.8873941 L35.5979444,48.9458952 C36.8408011,49.0696173 38.0061455,49.2221803 39.1914296,49.7281456 C41.3784718,50.6618912 40.2038239,54.1789714 38.008331,54.0982356 C36.3855845,54.0386348 34.9979789,53.3413902 33.6276972,52.5298051 C32.4298099,51.8203022 31.6954437,50.9326309 30.8865,49.8186035 C30.6186127,49.4495859 30.9919225,49.0359734 31.3567817,48.9987757 C31.9994577,48.9332571 32.6491056,48.7935546 33.291993,48.748537 Z M142.922451,41.566072 C142.560549,43.8251953 141.662239,45.9425025 140.308648,47.7858998 C139.628366,48.7122481 138.43407,48.7473323 137.759915,47.7858998 C136.806213,46.4258171 137.394277,44.8675905 138.112732,43.561248 L138.325303,43.1787408 C138.647027,42.605204 139.141125,41.7686549 139.70569,41.1909252 L139.715197,41.1317472 C140.017732,38.766526 143.295338,39.2386826 142.922451,41.566072 Z M54.6264296,27.0678646 C55.1706549,26.5775319 56.1729085,26.7248431 56.3495282,27.5229018 C56.5967113,28.6405221 56.7471338,29.8997472 56.5853028,31.0342755 C56.4976268,31.6490935 56.464669,32.339575 56.2229789,32.9125456 C55.9631197,33.5286317 55.4632606,34.0024791 54.9923451,34.4657589 C54.0522042,35.3906278 52.0703028,35.0848039 51.8184718,33.6275436 L51.7864872,33.4488015 C51.6598335,32.7592476 51.4978099,32.0222959 51.6853732,31.3388313 C51.8269507,30.823193 52.1433638,30.2972445 52.4051301,29.8188944 L52.4603028,29.7171405 C52.984669,28.7402795 53.8020634,27.8101268 54.6264296,27.0678646 Z M131.124592,29.4456377 L131.321423,29.4477322 C132.840507,29.4777497 135.617651,29.8476941 135.632466,31.7254755 C135.636,32.1680431 135.308324,32.6266732 134.869099,32.728544 C133.96107,32.9390489 133.374169,32.4024305 132.727056,31.8601057 C132.197831,31.4166928 131.58093,31.062681 130.940155,30.8077926 C130.248042,30.5324031 130.293254,29.4443718 131.124592,29.4456377 Z" id="ðŸ–-Ink" fill="#000000"></path>
                    </g>
                    <g id="head/Twists-2" transform="translate(78.591549, 38.043053)">
                        <path d="M86.2127324,53.2740751 C85.428507,47.0136681 82.9651205,40.366821 80.3743458,34.5303827 C74.5488529,22.1904844 61.212169,20.4915311 49.2563239,17.9472963 C37.4582958,16.2290184 24.9649859,14.6774959 13.3448451,18.105809 C6.81223944,19.7067875 4.26076056,27.4899734 5.29174648,33.6320243 C5.88012676,37.4593667 7.62160563,41.0816994 9.10660563,44.6287914 C12.0582254,51.9131906 13.9309014,59.7118051 13.9340704,67.5985526 C13.7314648,72.7525409 13.0042817,78.635265 18.9248451,80.8183022 C24.5587183,83.6210184 25.0347042,91.2186387 32.0891408,95.5293393 C34.9416761,101.309559 42.7118873,101.818279 48.3043521,103.159085 C51.8390704,103.835829 55.4137183,104.333981 58.9980845,104.655656 C69.3768169,105.986106 77.6796338,102.977535 83.1125915,93.7284235 C86.7482958,88.0995311 89.4556901,81.6000869 88.7868169,74.7781221 C88.1206901,67.5943256 87.0109014,60.4481495 86.2127324,53.2740751 Z" id="ðŸŽ¨-Background" fill="#FFFFFF"></path>
                        <path d="M49.3459014,2.95021761 C49.9382958,2.27854638 50.8509718,2.5089182 51.4049155,3.04004149 C51.7655493,3.14635068 52.1149859,3.3044407 52.4449859,3.5136775 C53.1907606,3.41793581 53.972662,3.41793581 54.7040704,3.4447773 C54.8815352,3.34523131 55.0716761,3.25667554 55.2787183,3.18058943 C56.7575915,2.63974403 58.0672394,2.91449941 59.1474507,3.63858552 C59.6678028,3.14613933 60.3242113,2.83714521 61.1633662,2.88385362 C61.9123099,2.92570098 62.4459718,3.27823327 62.9033662,3.74256986 C63.359493,3.0846364 64.0968169,2.6152274 65.0154085,2.54992016 C66.2992817,2.45861683 67.533507,2.9736775 68.5564648,3.77110215 C69.1524507,3.0871726 69.9649859,2.69406106 70.8704789,2.69025675 C71.4662535,2.5820454 72.0949859,2.62473816 72.6630845,2.7963546 C73.4878732,3.04553659 74.2120986,3.51240939 74.7888592,4.11835068 C75.7013239,3.24420587 76.8182958,2.6152274 78.1061831,2.70695342 C79.7730845,2.82742309 81.1547746,4.05346614 81.7970282,5.56250724 C82.9251972,6.01458552 83.9667465,6.65941526 84.837169,7.57878904 C84.8836479,7.62718826 84.9280141,7.67791233 84.974493,7.72884775 C85.443507,7.90194364 85.8850563,8.14732133 86.2737887,8.47047593 C87.5054789,9.4957362 87.7801268,10.9794153 87.3723803,12.4332939 C87.4294225,12.6659906 87.4780141,12.9027029 87.5223803,13.1392039 C88.6759014,13.3146247 89.7237887,13.9805894 90.3195634,15.0648164 C91.1350563,16.5527225 90.974493,18.5138419 90.0913944,19.9343272 C89.7117465,20.5453409 89.2298451,21.0601902 88.6885775,21.5103663 C89.3006197,22.9010513 89.0069577,24.5605738 88.0201268,25.68538 C87.7797042,26.0732078 87.4845634,26.4232039 87.1524507,26.740018 C87.519,28.1778341 86.8670282,29.6613018 85.5656197,30.4295601 L85.4543052,30.7082763 C85.4355962,30.7545933 85.4166056,30.8006912 85.3970282,30.8463429 C85.382662,30.9055209 85.3649155,30.9627969 85.3473803,31.0204955 C85.3163239,31.5306951 85.1483662,32.031384 84.8149859,32.5031178 C84.1324648,33.4698904 83.2864817,34.1003288 82.8379073,35.2289092 L82.7929437,35.3474701 C82.6000563,35.8815523 81.9772394,36.2583898 81.4465352,36.0935366 C84.3930845,42.1468204 85.9378732,48.8823429 86.9984366,55.4832352 C87.5272658,58.776337 87.9354002,62.0807699 88.2663595,65.3979272 L88.5909732,68.7012067 C88.8764681,71.6373885 89.1306143,74.5832864 89.1322394,77.5291843 C89.1364648,84.1932705 87.230831,90.6033135 83.1406901,95.9063037 C79.2723803,100.919321 73.7984366,104.552433 67.6146338,105.983274 C61.2301268,107.458499 53.7406901,106.877286 48.015338,103.499908 C46.3273099,102.506773 47.8061831,100.118304 49.5237887,100.917419 C52.7751972,102.430687 56.0794225,103.555071 59.6836479,103.806578 C63.1970282,104.053646 66.7188592,103.614038 70.0505493,102.464292 C75.5625211,100.560237 80.252662,96.5720571 83.2674507,91.6053252 C84.752662,89.1576775 85.8280141,86.5012157 86.4005493,83.6942724 C87.1132254,80.1958333 87.0058534,76.5797944 86.7439875,73.0366144 L86.7259014,72.7951491 C86.2082958,65.9683233 85.5259014,59.0994387 84.4230845,52.3406677 C83.4482958,46.3638928 81.9493521,40.5082215 80.0033662,34.782108 C79.2411127,34.1108595 78.3884366,33.5554309 77.4759718,33.1335757 C70.7942113,32.854382 64.1004085,32.9359632 57.4273099,33.3971295 C51.7361977,33.7930105 46.0726583,34.4627572 40.4519043,35.4388993 L39.8498451,35.5446599 C38.6054789,35.7663663 37.2237887,35.8931765 36.0512535,36.3942881 C35.0456197,36.8254427 34.6378732,37.6539358 34.3843521,38.6724329 C33.7463239,41.248793 33.6491408,44.0684172 33.5413944,46.7102959 C33.4357606,49.2927851 33.674493,51.8968321 33.4674507,54.4708673 C33.2920986,56.6245268 32.7406901,58.8289104 31.1456197,60.3867734 C30.3111127,61.2023742 29.2843521,61.6483233 28.3209718,62.2675796 C27.6977324,62.6672431 27.4336479,63.0791648 27.5139296,63.8188908 C27.687169,65.4378341 28.9906901,67.4773644 27.5266056,68.8638223 C27.2688592,69.1068751 26.8230845,69.1385777 26.5695634,68.8638223 C25.965338,68.2067342 25.130831,67.7056227 24.4146338,67.1751335 C24.1146338,66.9555405 24.3639296,66.5286129 24.7040704,66.6805738 C25.1519577,66.8815679 25.6082958,67.1182802 26.0751972,67.3254035 C25.0442113,66.4757753 23.5780141,66.0592039 22.3568873,65.8119241 C21.7420986,65.6893409 21.0956197,65.6534114 20.4554789,65.7106873 C19.9822394,65.9366207 19.4984366,66.1460689 19.0146338,66.3508673 C18.3998451,66.608926 17.7787183,66.8433135 17.1533662,67.0654427 C14.9836479,68.8342333 13.9484366,71.7109221 14.4005493,74.5239945 C14.6477324,76.0772078 15.3639296,77.766108 16.7139296,78.6728008 C18.3132254,79.7464603 20.4554789,79.2855053 22.1836479,80.0825072 C23.8019577,80.8283624 24.7864648,82.3355014 25.5237887,83.8952665 L25.8311755,84.5446604 C26.5155284,85.982433 27.2189816,87.3820594 28.1540704,88.6905933 C29.2357606,90.205975 30.5604085,91.5670708 32.0054789,92.7360493 C32.7065352,93.3017636 33.4537477,93.8106481 34.2259613,94.2740985 L34.437169,94.3993761 C35.2188592,94.8580063 35.7787183,95.29529 35.8315352,96.2653879 C35.8484366,96.6035483 35.6350563,96.9121198 35.3604085,97.0875405 C34.1773099,97.8378341 33.0005493,96.8994387 32.0160423,96.2442528 C30.9533662,95.5383429 29.937169,94.7438771 28.9970282,93.8773409 C27.2097042,92.2330356 25.6632254,90.2801589 24.4737887,88.1601041 C23.5674507,86.5455992 23.0519577,84.2735836 21.6195634,83.0223898 C20.7449155,82.2592039 19.509,82.2530748 18.4167465,82.1133722 C17.4005493,81.9825464 16.4392817,81.7711961 15.5350563,81.2702959 C11.8568873,79.2265386 10.8174507,74.2788282 11.6899859,70.4555014 C11.8378732,69.8106716 12.0449155,69.1829613 12.3005493,68.5784994 C10.9315352,68.8067577 9.39350704,67.3909221 9.94914085,65.9619828 C9.99139437,65.8541941 10.0399859,65.7529573 10.0864648,65.6491843 C9.18435211,65.05529 8.47238028,64.1551491 8.13435211,62.9777166 C7.96111268,62.3690278 7.93576056,61.7539984 8.02660563,61.1601041 C7.58928169,60.8665386 7.22801408,60.4626481 6.99561972,59.965975 C6.26885915,59.629928 5.62449296,59.1271256 5.23998592,58.4085346 C4.70759155,57.4170904 4.77519718,56.5040571 5.18083099,55.6819045 C5.12378873,55.5785542 5.06885915,55.4728791 5.01604225,55.3648791 C3.52660563,54.4203546 2.48716901,52.792746 2.60547887,50.9878145 C2.64350704,50.3896932 2.79139437,49.8507499 3.01956338,49.3648556 C3.0005493,49.303564 2.98153521,49.2399476 2.9646338,49.178656 C1.71815493,48.5446051 0.687169014,47.5028595 0.31956338,46.1121746 C-0.0480422535,44.7128243 0.385056338,43.3179123 1.25125352,42.2442528 C-0.0163521127,41.3166364 -0.779028169,40.0210591 -0.316352113,38.0616305 C-0.128323944,37.2650513 0.24984507,36.5399084 0.761112676,35.9291061 C0.759,35.9102959 0.754774648,35.8912744 0.750549296,35.8720415 L0.631955217,35.7800261 C-0.932915443,34.5446849 -1.83248059,32.9704082 -0.871985915,31.0342333 C-0.441,30.1636814 0.173788732,29.5568947 0.896323944,29.1574427 L0.932239437,29.0433135 L0.932239437,29.0433135 C0.414633803,27.9337245 0.23928169,26.7015523 0.596323944,25.405975 C0.887873239,24.3388673 1.57871831,23.4890278 2.4618169,22.9249339 C2.40266197,22.4470708 2.41111268,21.937928 2.5061831,21.3860924 C2.6646338,20.4542489 3.12730986,19.6405503 3.8033662,19.063564 C3.82871831,18.9407695 3.86040845,18.8205112 3.89632394,18.6998301 C4.12449296,17.962429 4.55125352,17.1614114 5.04561972,16.5673057 C5.4533662,16.0748595 5.90970423,15.8952117 6.4674507,15.8761902 C6.43364789,15.4219984 6.45688732,14.9610434 6.54984507,14.4939593 C6.83505634,13.0527616 7.75195775,11.6977949 9.11040845,11.0827656 C9.66815493,10.8312587 10.2554789,10.7574975 10.8216761,10.8185777 C11.3033662,9.80409628 12.243507,9.06880861 13.3991408,8.91029589 C13.8491408,8.8468908 14.2674507,8.85090646 14.6519577,8.90818239 C14.8695634,8.8065229 15.0956197,8.71585362 15.3322394,8.63321566 C15.4885775,8.57826458 15.6470282,8.52754051 15.8054789,8.47702779 C16.3399859,7.81338787 17.043507,7.28268728 17.865338,6.96375969 C18.8139296,6.59389667 19.7794225,6.63172838 20.6350563,6.94241331 L20.9075915,6.88534873 L20.9075915,6.88534873 C21.3343521,6.1456227 22.0146338,5.57286341 23.0604085,5.31290254 C24.2477324,5.01912564 25.4667465,5.42914521 26.4005493,6.17542309 C26.4047746,6.17542309 26.409,6.17542309 26.415338,6.17309824 C26.9033662,5.08041722 27.7378732,4.31955616 29.1385775,4.37239374 C30.0111127,4.40620978 30.7991408,4.83968924 31.4075915,5.45683209 C31.7456197,5.41435068 32.0836479,5.37630763 32.4237887,5.33847593 C32.7829437,4.9176775 33.1822394,4.5247773 33.6237887,4.17182231 C34.3463239,3.59251115 35.2864648,3.63921957 35.8188592,4.45482035 C35.9350563,4.6323546 36.0428028,4.81200235 36.1505493,4.9916501 L36.6385775,4.95783405 L36.6385775,4.95783405 C37.2132254,4.18217847 37.9970282,3.65802975 39.0702676,3.61597104 C40.0547746,3.57560313 40.7561831,4.05769315 41.2906901,4.73168924 C41.7259014,4.72112172 42.1632254,4.71287906 42.6005493,4.7063272 C43.1097042,4.11665988 43.7097042,3.59673816 44.3942113,3.16558356 C44.9181549,2.8358771 45.6913944,2.94810411 46.1160423,3.38771272 C46.4029437,3.68656204 46.6699859,3.99851507 46.9182254,4.32145832 C47.5581549,3.60371272 48.4224507,3.13092211 49.3459014,2.95021761 Z M18.2519577,70.0644188 C19.2385775,69.502227 20.565338,70.1109159 21.5202676,70.5885675 C22.6843521,71.1697808 23.8399859,72.0468845 24.5519577,73.1459061 C25.5216761,74.6422661 23.2420986,75.8511898 22.2216761,74.5091155 C21.5942113,73.6827358 21.093507,72.8500157 20.3329437,72.1271977 C19.6378732,71.4635577 18.6301268,71.0197221 18.230831,70.1447319 C18.2160423,70.1151429 18.2202676,70.0813268 18.2519577,70.0644188 Z M18.9450534,33.7436864 L18.963507,33.6909065 C19.2440704,32.9230708 18.0195634,32.5920963 17.7413239,33.3535914 C17.3196338,34.5077753 17.8057606,35.762562 18.945338,36.260926 C19.2611831,36.3991491 19.6220282,36.3511726 19.8123803,36.0335131 C19.9723099,35.766155 19.8981549,35.3028751 19.5850563,35.1661315 C18.9438647,34.8856419 18.7291002,34.3905528 18.9450534,33.7436864 L18.9450534,33.7436864 Z M8.39611268,31.5966364 C9.009,31.0555796 8.1096338,30.1613566 7.49970423,30.7000885 C6.9305493,31.2026795 6.50843662,31.8853409 6.61808451,32.6705072 C6.72984507,33.4706795 7.33301408,34.0356188 7.99322535,34.4348595 C8.69294366,34.8581941 9.33076056,33.7621315 8.63294366,33.3398536 L8.55455274,33.2918826 C8.26163498,33.1098942 7.91878873,32.8596658 7.86921127,32.5016384 C7.81660563,32.1212078 8.1383662,31.8242607 8.39611268,31.5966364 Z M11.8751456,22.049552 L11.9185775,22.017607 C12.5768873,21.547564 11.9445634,20.4472744 11.2786479,20.9226012 C10.6680845,21.3586168 10.1783662,21.9250356 10.1268169,22.7061863 C10.0767465,23.4653566 10.4629437,24.1235014 10.9678732,24.6575836 C11.5296338,25.2516892 12.4249859,24.3538732 11.8642817,23.7610356 C11.3179481,23.1832391 11.211162,22.5527574 11.8751456,22.049552 L11.8751456,22.049552 Z" id="ðŸ–-Ink" fill="#000000"></path>
                    </g>
                    <g id="face/Blank" transform="translate(112.183099, 77.354207)" fill="#000000">
                        <path d="M38.3947606,44.9775405 C38.5413803,44.9378067 38.6704648,45.1347851 38.5489859,45.2425738 C38.051662,45.6840845 37.7358169,46.5066599 37.3728592,47.0673722 C37.0276479,47.6008204 36.6949014,48.1287734 36.3913099,48.6871609 C36.0509577,49.3129691 35.7222254,49.9364524 35.4572958,50.5986129 L35.4049014,50.7321863 L35.4049014,50.7321863 C35.4842228,50.9210566 35.5462586,51.1074815 35.5919613,51.2296916 L35.6051831,51.2643663 C36.0577183,52.4204524 35.1078592,53.7052509 34.0365211,54.0284055 C32.2039859,54.5810865 30.6317324,53.0756384 30.588,51.28529 C30.5535634,49.8768517 31.5078592,48.6218536 32.4775775,47.6908556 C33.3258169,46.8765229 34.2756761,46.1832939 35.3381408,45.6754192 C35.8069437,45.4515992 36.2939155,45.2643429 36.8028592,45.1557088 C37.3234225,45.0447499 37.8849718,45.1153409 38.3947606,44.9775405 Z M34.9409577,50.0816501 C35.0753239,50.1450552 35.1900423,50.299975 35.2865915,50.4808908 C35.2384225,50.3274505 35.1389155,50.1748556 34.9409577,50.0816501 Z M36.0875289,30.5120405 C37.6828906,31.482148 40.1137318,33.7442494 38.3974899,36.149264 C36.3773089,38.2698449 33.4687045,35.8384541 32.0353946,34.7388307 C30.7063626,33.8866164 29.2131206,36.0784478 30.4461973,37.0735516 C40.8033244,44.7445605 45.006466,30.7657101 36.8944406,29.3714319 C36.0012775,29.2177885 35.6695544,30.2119271 36.0875289,30.5120405 Z M22.9734718,21.196807 L23.2553308,21.1731595 C24.4779893,21.0653601 25.7159366,20.9010676 26.9216408,21.1777855 C28.5414296,21.549762 28.4226972,23.9071632 26.9216408,24.3406427 C25.5986831,24.7225526 24.1326972,24.5572767 22.7670634,24.5703804 C22.5522042,24.5724939 22.3377676,24.577989 22.1231197,24.581582 C22.0808662,25.0924157 21.913331,25.5328697 21.6568521,25.972901 C21.4730493,26.2886583 21.2385423,26.5885644 21.007838,26.8690262 C20.4593873,27.535625 19.1657958,27.5206192 18.6122746,26.8690262 C18.202838,26.3867249 17.8768521,25.8319303 17.8715704,25.1790693 C17.8703028,25.0118912 17.8905845,24.8343569 17.9305141,24.6597816 L17.1851399,24.6728174 C15.3608351,24.7006689 13.5225845,24.688297 11.7312887,24.3983413 C11.0941056,24.5302239 10.5726972,23.3800556 11.4522042,23.0357659 C13.8431197,22.1003295 16.5141761,21.8249401 19.0512887,21.5440556 C20.3550211,21.399492 21.6659366,21.299946 22.9734718,21.196807 Z M43.3420916,20.2301431 L43.4071479,20.2236658 C44.989331,20.0615601 46.7333451,19.7808869 48.3186972,19.9423585 C50.6857394,20.1830865 50.6817254,23.384198 48.3186972,23.6236579 C47.4512324,23.7115796 46.5372887,23.6688869 45.6258803,23.5847695 C46.0917254,24.5734661 45.5390493,25.7542802 44.4165845,25.9051843 C43.3734737,26.0453617 42.292403,25.0313137 42.6345747,23.9436933 L42.6505986,23.8956658 C42.7173592,23.7069299 42.7773592,23.4960023 42.8485563,23.2878223 L42.4710789,23.2559706 C41.3427345,23.1561803 39.7766698,22.9523871 39.3613732,22.0611452 C39.2360915,21.792519 39.2650352,21.5431256 39.4579225,21.3135992 C40.2489085,20.3717585 42.1986992,20.3407637 43.3420916,20.2301431 L43.3420916,20.2301431 Z M26.5176549,12.9009276 C27.6627254,12.4847789 28.8527958,13.458681 29.0013169,14.5562231 C29.1723398,15.8209987 28.2604643,16.6537132 27.1046587,16.8047698 L27.046669,16.8117534 C24.4954014,17.0928493 21.9633592,17.6068532 19.4087113,17.8974599 C18.248468,18.0292656 17.0794946,18.1160066 15.9114737,18.1472026 L15.0767519,18.1659677 C14.0538703,18.1918364 12.9567734,18.2151704 12.0124437,17.8627984 L12.0160352,17.8564579 L12.0160352,17.8564579 C11.7652606,17.7837534 11.6499085,17.4219217 11.928993,17.2240978 C12.9344155,16.5129041 14.2896972,16.2440665 15.4601197,15.9061174 C16.6368803,15.5660548 17.8223028,15.2526223 19.0108944,14.9582114 C21.5068099,14.3406458 24.0994859,13.7797221 26.5176549,12.9009276 Z M37.0781831,13.1965855 C37.3815634,11.5964524 39.6474085,11.424836 40.4795915,12.5891648 C41.0174789,12.7738849 41.8061408,12.9666364 42.2948028,13.1116227 C43.1462113,13.3641863 43.9982535,13.6152705 44.8521972,13.8585346 C46.620507,14.3623937 48.3461408,15.0010943 50.084662,15.5964681 C50.2638169,15.657971 50.2145915,15.885384 50.0424085,15.9079984 C47.615907,16.2239079 45.2300988,16.3709428 42.7889089,16.2696327 L42.2883546,16.2470864 C40.1372571,16.1632432 36.4855268,16.3231897 37.0781831,13.1965855 Z" id="ðŸ–-Ink"></path>
                    </g>
                    <g id="facial-hair/Full-3" transform="translate(104.577451, 109.479380)" fill="#000000">
                        <path d="M48.1678099,22.0460971 C46.2002746,20.2925237 43.9948521,16.7672008 41.1683028,19.556602 C40.4692183,20.3447272 40.1861197,22.1116157 39.1171056,22.4582301 C37.6973873,22.9189738 36.2903451,21.4162732 35.8065423,20.2623006 C33.8269648,13.8505667 42.0102042,12.0919209 46.6720352,13.1277487 C48.9495,14.0633965 50.6269648,17.8296587 50.7283732,19.7952164 C50.7938662,21.1161558 49.6762606,23.058465 48.1678099,22.0460971 M63.0114718,12.1633573 C62.9922465,12.0781832 62.9654155,12.0012517 62.9330915,11.9312947 C62.0628803,11.6022223 61.3743592,11.9378466 60.9488662,12.5647115 C60.9628099,12.7204767 61.0092887,12.8783554 61.0386549,13.0328524 C60.7103451,13.7248133 60.4141479,14.5809933 59.9692183,15.1789033 C59.881331,15.1856665 59.7902746,15.1763671 59.7028099,15.1510051 C52.3268239,15.9215883 55.9278803,8.20117339 48.4466831,6.28359217 C42.6636549,5.32913425 32.2114014,6.42244932 29.4833028,12.4440305 C27.3317535,22.0621597 16.3916831,15.3602419 12.7997113,10.3582145 C8.96710563,5.80594051 6.48893662,0.243200783 4.0995,-5.15468571 C3.59457042,-6.29703405 2.01872535,-5.48016517 2.19006338,-4.38410254 C-0.018528169,0.0481244618 0.0549929577,5.37203836 -0.491978873,10.2276 C-1.42240141,19.9148407 -2.3289507,33.5000149 6.66830282,39.4150755 C18.3909085,52.6703319 47.6637254,57.3479366 61.1844296,45.1686646 C65.8648521,35.1020501 65.2878803,22.8211186 63.0114718,12.1633573" id="ðŸ–-Ink"></path>
                    </g>
                </g>
            </g>
        </g>
    </g>
</svg>