<?xml version="1.0" encoding="UTF-8"?>
<svg width="240px" height="324px" viewBox="0 0 240 324" version="1.1" xmlns="http://www.w3.org/2000/svg" xmlns:xlink="http://www.w3.org/1999/xlink">
    <!-- Generator: Sketch 62 (91390) - https://sketch.com -->
    <title>peep-61</title>
    <desc>Created with Sketch.</desc>
    <g id="Introduction" stroke="none" stroke-width="1" fill="none" fill-rule="evenodd">
        <g id="variations" transform="translate(-2046.000000, -1406.000000)">
            <g id="images" transform="translate(126.000000, 110.000000)">
                <g id="a-person/bust" transform="translate(1920.000000, 1296.000000)">
                    <g id="body/Thunder-T-Shirt" transform="translate(31.056338, 135.052838)" fill-rule="evenodd">
                        <path d="M86.5087798,-10.9909136 C89.3480051,-11.7771367 92.6118784,-11.6856221 95.5248361,-11.4846279 C98.4830051,-11.2802522 101.657301,-10.9298334 104.433146,-9.82489407 C106.846245,-8.86430699 108.881174,-7.24895669 110.121104,-4.93424828 C111.14047,-3.03146159 111.618569,-0.944588788 111.918146,1.17504331 C112.040681,2.0424853 112.143275,2.91197609 112.240865,3.78228333 L112.44142,5.59292821 C112.520021,6.28532168 112.588551,6.80441121 112.726245,7.5768437 C113.10716,9.71338382 113.637653,11.4984484 114.822019,13.0529298 C117.690188,16.8162331 122.373569,18.0758809 126.632512,19.6821431 C129.357864,20.7099396 131.515963,22.558832 132.114695,25.529783 C132.692381,28.3959086 154.656401,52.4415156 156.812643,54.4685965 L156.871878,54.523239 C158.544484,56.0297439 158.347583,58.8616265 158.581667,60.9292664 C158.832442,63.1461196 159.071174,65.3646637 159.297864,67.5838417 C159.758005,72.0925776 160.168076,76.6061744 160.527864,81.1235756 C161.934562,98.7911412 162.572786,116.520192 162.437143,134.242989 L162.428639,135.246159 C162.407723,137.495349 162.424414,139.754472 162.323639,142.001548 C162.226667,144.161125 161.573428,146.322605 159.573146,147.450581 C157.719998,148.495729 155.376653,148.403681 153.305598,148.508013 L153.181667,148.514519 C150.959343,148.636257 148.736174,148.736014 146.511949,148.818441 C137.472653,149.153008 128.425118,149.189149 119.38054,149.147513 C101.437583,149.064875 83.4766671,148.670284 65.5506108,149.675255 C60.9811037,149.931411 46.4133573,148.374816 41.8582164,148.818441 C37.5044136,149.242198 41.2400474,151.378315 38.5503995,151.237556 C29.7050107,150.774644 21.3147657,148.800264 12.839977,146.42194 C11.781315,146.124992 10.9717375,145.097196 10.984882,143.986127 C11.1424418,131.783184 11.486808,119.583411 12.0249066,107.391458 C12.5042728,96.531012 13.1359629,85.677329 13.9195544,74.8346363 C14.2602499,70.1216568 14.6295754,65.4106191 15.0275309,60.7020896 L15.1998361,58.6843036 C15.4246249,56.0821588 15.5539206,53.4322488 16.0653995,50.8662449 C16.5713854,48.3283505 17.7192023,46.1275599 19.3835685,44.1611568 C20.8770192,42.3970159 37.7858221,28.5865423 41.8582164,25.9719278 C45.7561037,23.4691177 49.8492023,21.3577282 53.8508221,19.0381588 C55.5156108,18.0731333 57.1144887,18.4204039 58.5367422,17.2357855 C59.2865626,16.6114229 70.1661261,12.4038545 73.1014362,11.0155014 L73.1879347,10.9742997 C75.4345544,9.89599047 77.5020192,8.72680064 79.0544136,6.86226836 C79.5747657,6.23730554 80.5953995,2.29963822 80.5973009,1.04146992 C80.6008925,-1.2060291 80.4306108,-3.57357509 81.1083573,-5.75069446 C81.9187798,-8.35410738 83.8721601,-10.2609097 86.5087798,-10.9909136 Z M91.3221851,46.959635 L73.9375151,80.8286364 L85.2419718,80.8286364 L77.1388862,99.6466804 L94.933784,99.6466804 L88.6213624,126.005067 L124.720234,80.8286364 L111.17402,80.8286364 L124.720234,63.0416369 L115.324858,63.0416369 L124.720234,47.9783551 L91.3221851,46.959635 Z" id="ðŸŽ¨-Background" fill="#FFFFFF"></path>
                        <path d="M149.720873,66.0048658 C149.680732,66.044811 149.638479,66.0851789 149.598338,66.1274489 C149.644817,66.0619303 149.684958,65.9940869 149.720873,65.9266661 L149.720873,66.0048658 Z M115.934958,56.1388227 C114.37369,58.1341808 112.721577,62.19422 111.204676,64.2252963 C110.98707,64.5167483 110.77369,64.8086231 110.562423,65.1021886 C109.932845,65.9835194 110.77369,67.3319342 111.808901,67.275081 C113.877211,67.1649675 115.943408,67.0108932 118.009606,66.8544939 C113.765239,71.5864157 110.241296,77.4642787 106.343408,82.4772963 C106.079324,82.8133432 105.819465,83.1517151 105.559606,83.4896642 C104.572986,84.7767875 105.561718,85.3603256 106.909606,85.0134998 C107.188479,84.9418521 107.467352,84.869993 107.746225,84.8002474 C109.706789,84.2972337 111.665239,83.79422 113.625803,83.2933198 C114.709606,83.014126 115.799746,82.6698364 116.898338,82.4563726 C117.350451,82.369719 117.783549,82.4415781 118.21031,82.4648266 C118.00538,82.7774137 117.718056,83.341719 117.661014,83.4283726 C117.020873,84.425946 116.376507,85.4192924 115.727915,86.4084117 C114.464535,88.3319108 113.194817,90.2528736 111.87862,92.1402317 C106.744817,99.4994489 101.207493,106.524944 95.7187606,113.615746 C94.3370704,115.399332 92.9363662,117.164318 91.5124225,118.912185 C91.5187606,118.901406 91.5229859,118.890838 91.5293239,118.880482 C92.8117183,116.38211 94.0941127,113.886275 95.376507,111.387903 C97.8145352,106.641187 100.229324,101.881578 102.692704,97.1473315 C102.819465,96.9000517 102.948338,96.6548853 103.077211,96.4076055 C103.588479,95.4267288 102.749746,94.4082317 101.699746,94.6151436 C96.5773521,95.624764 91.5046056,96.8653902 86.4948169,98.3344861 C86.2693944,98.5747914 85.9379155,98.645171 85.6419296,98.5870497 C85.4405915,98.6472845 85.2384085,98.7051945 85.0370704,98.7662748 C85.0981268,98.6396759 85.1612958,98.5143452 85.2227746,98.3881691 C85.0180563,98.2102121 84.9162254,97.9348227 85.0493239,97.5909558 C87.9320704,90.1497346 91.8844648,82.9661495 96.5674225,76.3872376 C96.3789718,76.3908305 96.1909437,76.3935781 96.0018592,76.3990732 C90.8617183,76.5385644 85.8187606,77.2761769 80.8645352,78.677218 C80.8412958,78.2185879 81.1180563,77.5086622 81.2680563,77.1705018 C81.8680563,75.819762 82.5567887,74.5009362 83.2011549,73.1715429 C84.5194648,70.4408971 85.8377746,67.7125761 87.1560845,64.981719 C88.4448169,62.3144783 89.7229859,59.6389949 90.935662,56.9337112 C91.5715775,55.5153393 92.207493,54.0950654 92.8412958,52.6750027 C93.3589014,51.5187053 93.7666479,50.3541652 94.1955211,49.1708149 C95.4546761,49.5406779 111.622986,49.6207796 115.552563,49.8936329 C116.515944,49.961265 117.481437,50.0225566 118.44693,50.0753941 C119.215944,50.1197777 120.299746,50.2888579 120.830028,49.5935155 L121.030732,49.7623843 C119.285662,51.8505252 117.612423,53.9959421 115.934958,56.1388227 L115.934958,56.1388227 Z M52.8103099,17.3435742 C52.8905915,17.3076446 52.9687606,17.2717151 53.0469296,17.2357855 C53.0870704,17.2928501 53.135662,17.3456877 53.1863662,17.3985252 C53.3131268,17.5274489 53.4377746,17.6667288 53.5687606,17.7937503 C53.3152394,17.6455937 53.0617183,17.495535 52.8103099,17.3435742 L52.8103099,17.3435742 Z M165.804676,136.120326 C165.658901,133.040952 165.496225,129.961367 165.322986,126.881993 C164.980732,120.862948 164.627915,114.843692 164.156789,108.832889 C163.199746,96.6527718 162.308197,84.4766701 160.87369,72.3409362 C160.271577,67.2537346 159.430732,62.2047875 158.587775,57.1533041 C158.695521,57.056083 158.80538,56.9588618 158.913127,56.8639656 C158.79693,58.2459851 160.672986,59.1211867 161.602563,57.7429714 C161.672282,57.6396211 161.739887,57.5360595 161.807493,57.4282708 C162.612423,56.126353 164.467352,49.7391358 164.338479,49.1980791 C164.106085,48.2237542 163.459606,47.3574294 162.954676,46.4993472 C162.513127,45.7488423 162.067352,44.9985487 161.615239,44.254807 C160.713127,42.7645761 159.783549,41.2895624 158.809606,39.8458286 C156.792,36.8575468 154.586366,33.9874098 151.987775,31.4786818 C149.298338,28.8790732 146.211718,26.7421104 143.02369,24.8042395 C141.492,23.8740869 139.911718,23.0310106 138.301859,22.2445761 C136.713127,21.4710341 134.974394,20.6150654 133.263127,20.1754568 C133.165944,20.1500947 133.066648,20.2855703 133.15538,20.3574294 C133.609606,20.7167249 134.084958,21.054674 134.568761,21.3801534 C133.258901,20.9259616 131.908901,20.5981573 130.548338,20.4819147 C127.913831,19.5562004 125.247634,18.7088971 122.625803,17.7428149 C120.048338,16.7917386 117.508901,15.7225174 115.795521,13.4695233 C114.331437,11.5439108 113.406085,9.18756634 112.694113,6.89230215 C111.912423,4.36243914 111.601859,1.73303014 110.879324,-0.801059883 C110.822282,-1.00606967 110.486366,-1.0293182 110.442,-0.801059883 C109.926507,1.85772681 109.949746,4.84643131 110.243408,7.53036869 C110.551859,10.3455546 111.344113,13.1081143 113.068056,15.397038 C115.070873,18.0579382 117.787775,19.5392924 120.844817,20.7207405 C123.31031,21.6762552 125.807493,22.6482552 128.332141,23.5021104 C128.002563,23.717899 127.668761,23.933265 127.324394,24.1382748 C125.95538,24.9521847 124.531437,25.6750027 123.075803,26.3238481 C120.418056,27.5093119 117.618761,28.3971945 114.802563,29.117899 C109.561014,30.4534215 104.186366,31.1320673 98.7821408,31.2208344 C87.9694648,31.4004822 77.0363662,29.134807 67.1469296,24.759856 C64.3624225,23.5276838 61.6434085,22.172717 58.9518592,20.7505409 C58.1110141,20.3064939 57.2659437,19.8584313 56.4250986,19.3976877 C56.4948169,19.393672 56.5666479,19.3873315 56.6363662,19.3807796 C58.5145352,19.2034568 60.3694648,18.8420477 62.1863662,18.33058 C65.9067887,17.2801691 69.4729859,15.6422043 72.9758028,14.0293902 C75.9462254,12.6619538 79.0053803,11.1043022 80.820169,8.25551155 C81.7898873,6.73167593 82.235662,4.94365245 82.5969296,3.19367202 C83.0004507,1.24502231 83.4758028,-0.712292759 83.7694648,-2.67975264 C83.8729859,-3.3687546 83.7187606,-4.30080939 82.9793239,-4.62628885 C82.6835493,-4.75542387 82.4405915,-4.86109902 82.1089014,-4.86109902 C81.3758028,-4.86109902 80.6236901,-4.32828493 80.448338,-3.59701292 C80.0152394,-1.77305988 79.7532676,0.101617221 79.4131268,1.94438043 C79.1194648,3.53796164 78.8511549,5.2014998 77.9912958,6.6025409 C76.4891831,9.05652916 73.5441127,10.3117386 71.0553803,11.5060791 C67.9011549,13.0193472 64.7448169,14.4943609 61.4680563,15.7225174 C60.0250986,16.2633628 58.5567887,16.7539068 57.0673521,17.1552611 C57.126507,16.7898364 57.0758028,16.4049675 56.8603099,16.1154176 C56.5011549,15.6377659 56.0934085,15.3207405 55.6307324,14.9553159 C55.1279155,14.5577659 54.4518592,14.350854 53.8581972,14.5262748 C53.8581972,14.5281769 53.8560845,14.5262748 53.8560845,14.5262748 C53.6152394,14.4734372 53.3490423,14.4943609 53.0743944,14.6190575 C52.2250986,15.0081534 51.3779155,15.4010536 50.5307324,15.800717 C38.3427042,21.536764 26.5011549,28.2744 17.5328451,38.5354568 C16.2398873,40.0149088 15.0293239,41.5706583 13.8948169,43.1745957 C12.792,44.7324587 11.4272113,46.4232611 11.1229859,48.3547914 C11.0976338,48.515629 11.3321408,48.5896016 11.3722817,48.424537 C11.4441127,48.1265331 11.5412958,47.8348697 11.6617183,47.5516603 C11.4103099,48.4310888 11.4250986,49.3652571 11.7800282,50.2844196 C12.2004507,51.3665331 12.9715775,52.0832219 13.9455211,52.3683335 C12.9673521,56.6568423 12.3103099,61.0022043 11.7821408,65.3959656 C11.0236901,71.7259068 10.4849577,78.070854 10.0793239,84.4322865 C9.26805634,97.12831 8.90678873,109.887527 9.16876056,122.606588 C9.24270423,126.201445 9.36523944,129.796725 9.55115493,133.38968 C9.64411268,135.186157 9.74552113,136.98031 9.86171831,138.776787 C9.97580282,140.543887 9.88284507,142.490423 11.4229859,143.422478 C11.442,143.492224 11.4631268,143.559645 11.4821408,143.62939 C11.8560845,144.933422 13.5229859,144.515159 13.6793239,143.331386 C13.6814366,143.318917 13.6835493,143.303911 13.685662,143.291441 C14.9448169,142.329797 14.7546761,140.727762 14.6617183,139.191034 C14.5624225,137.532146 14.4567887,135.875159 14.3680563,134.218173 C14.1990423,131.039253 14.0553803,127.860756 13.926507,124.679723 C13.6750986,118.389938 13.5335493,112.091911 13.4870704,105.797688 C13.3941127,93.2075507 14.1208732,80.6364352 14.9828451,68.0824391 C15.3441127,62.830173 15.7666479,57.6013667 15.8955211,52.3514254 C16.5694648,52.000584 16.776507,51.0032219 16.4384789,50.331128 C24.420169,55.7795272 31.8272113,62.2933432 37.7743944,69.8641221 C38.7673521,71.1277855 39.7159437,72.4297033 40.6243944,73.755081 C40.920169,74.1860243 41.2011549,74.6342982 41.4842535,75.0821495 C41.2096056,76.3312297 40.9962254,77.601445 40.7173521,78.7998012 C40.1427042,81.2749245 39.8997465,83.8426192 39.570169,86.357899 C38.9004507,91.4662356 38.4293239,96.6208579 38.0300282,101.75667 C37.2441127,111.899371 36.6610141,122.040169 36.4772113,132.212459 C36.3758028,137.965202 36.2405915,143.754087 36.4941127,149.50514 C36.3060845,150.629312 37.3180563,151.728545 38.376507,151.87015 C39.3039718,151.994635 40.170169,151.512968 40.5758028,150.737101 C43.4659437,151.096396 46.4321408,151.261461 49.3032676,151.282384 C53.1715775,151.30986 57.0398873,151.305844 60.9081972,151.223206 C68.6469296,151.054126 76.3835493,150.855668 84.120169,150.625296 C99.5934085,150.16878 115.066648,149.71015 130.542,149.251519 C134.832845,149.124498 139.12369,148.997899 143.414535,148.871089 C145.349746,148.814024 147.762423,149.371778 149.287775,147.877742 C149.549746,147.619684 149.752563,147.317453 149.896225,146.994087 C150.352563,147.108216 150.912423,146.9962 151.212423,146.643245 C151.772282,145.981719 152.184254,145.369014 152.163127,144.451754 C152.144113,143.593461 151.907493,142.689093 151.784958,141.839465 C151.552563,140.24377 151.32862,138.647864 151.115239,137.050056 C150.694817,133.892482 150.301859,130.730893 149.940592,127.566768 C149.201155,121.097547 148.529324,114.613108 148.00538,108.122541 C146.965944,95.2874489 146.672282,82.3845135 146.708197,69.5090536 C146.712423,68.3571945 146.718761,67.2053354 146.725099,66.053265 C146.77369,66.1147679 146.826507,66.1716211 146.883549,66.2204431 C146.930028,66.2603883 146.976507,66.3005448 147.022986,66.3430262 C147.563831,66.8185644 148.463831,67.0637307 149.112423,66.6135546 C149.908901,66.0976485 150.458197,65.3241065 151.079324,64.6247483 C151.732141,63.8913628 152.403972,63.1767875 153.082141,62.4668618 C154.396225,61.0930849 155.754676,59.7761613 157.140592,58.4742434 C157.252563,58.3708932 157.364535,58.265218 157.476507,58.1635585 C157.484958,62.2616407 157.480732,66.3578207 157.590592,70.4537894 C157.75538,76.5385644 158.084958,82.6169988 158.38707,88.6933198 C158.98707,100.725281 159.608197,112.753226 160.206085,124.783285 C160.372986,128.141852 160.531437,131.50211 160.698338,134.860467 C160.782845,136.540701 160.865239,138.220936 160.945521,139.901382 C160.987775,140.809977 161.030028,141.721108 161.072282,142.629915 C161.118761,143.606353 161.057493,144.650212 161.38707,145.578251 C162.13707,147.699997 165.377915,148.000114 166.001155,145.578251 C166.392,144.058643 166.092,142.299997 166.022282,140.740232 C165.950451,139.201813 165.87862,137.660858 165.804676,136.120326 L165.804676,136.120326 Z" id="ðŸ–-Ink" fill="#000000"></path>
                    </g>
                    <g id="head/Long-Bangs" transform="translate(78.591549, 38.043053)" fill-rule="evenodd">
                        <path d="M85.746507,42.9417299 C83.5702394,35.0824579 75.2515775,31.6530881 67.7596056,31.1088611 C47.4749577,28.9993738 26.8277746,40.3116869 17.8349577,58.6549902 C10.6364366,72.5836086 10.4110141,87.2153894 25.8846761,95.1682896 C26.7297465,95.634317 27.6122113,96.1324697 28.5134789,96.5847593 C29.2964366,97.3130724 30.1028451,98.0128532 30.9829859,98.600407 C39.4089718,104.14328 49.7507324,106.540626 59.7728451,106.020705 C74.5702394,105.722278 79.8527746,95.6774325 83.0853803,82.7958434 C86.4948169,69.971319 88.401507,56.055593 85.746507,42.9417299 L85.746507,42.9417299 Z" id="ðŸŽ¨-Background" fill="#FFFFFF"></path>
                        <path d="M95.4598521,117.021276 C94.769007,114.931022 93.9028099,112.904172 93.0936549,110.856188 C92.9225282,109.835366 92.8084437,108.80609 92.7790775,107.76836 C92.6668944,104.061276 93.3600634,100.322489 94.1373169,96.7126262 C95.7175986,89.3766575 97.3929507,82.116775 98.2337958,74.6455421 C99.7359085,61.281863 98.8422465,47.3855812 92.7661901,35.1864423 C87.5014014,24.6189276 78.5795704,15.9768141 67.0549225,12.7389276 C63.6480211,11.7812994 60.1416127,11.253135 56.6111197,11.0422074 C56.174007,10.9726732 55.7375282,10.9046184 55.303162,10.8390998 C50.3924577,10.0985284 45.421331,9.72951076 40.4578099,10.0488611 C32.2268239,10.5787162 24.0727394,12.9449941 17.2175282,17.625135 C10.3156268,22.3376125 5.4116831,28.9452681 3.12978169,37.0046888 C0.755978873,45.388955 0.957316901,54.4691977 -3.14190845,62.3297378 C-4.35289437,64.6520548 -5.76648592,66.85982 -7.11458451,69.1043601 C-10.6915563,73.0969785 -14.5750775,77.535546 -15.4260634,83.0253699 C-16.4760634,89.8099256 -12.5739507,95.5438591 -8.88099296,100.838184 C-5.54296479,105.618928 -1.01338732,112.221511 -4.44859859,118.107616 C-6.06902113,120.884759 -8.6655,122.962333 -10.6155,125.494309 C-12.637331,128.123507 -14.2155,131.141589 -15.030993,134.366795 C-16.5626831,140.423883 -15.1535282,146.737127 -11.0570493,151.471374 C-8.92324648,153.935718 -6.18310563,155.565229 -3.21690845,156.835444 C-0.180992958,158.133135 2.78520423,159.365307 5.29506338,161.573918 C6.44224648,162.582059 7.49224648,163.687421 8.48520423,164.84562 C9.41055634,166.29337 10.4880211,167.646012 11.7028099,168.884524 C13.0401338,170.247734 15.6598521,168.381511 14.4323873,166.777362 C14.3415423,166.659006 14.2528099,166.542763 14.1619648,166.424407 C13.2640775,165.253526 12.3619648,164.082646 11.4175986,162.949808 C8.60140141,158.485879 7.51759859,153.020571 8.91830282,147.80656 C9.2816831,146.451804 9.7929507,145.166795 10.4290775,143.953644 C10.5640775,144.306599 10.7119648,144.655327 10.8683028,144.999828 C11.4767535,146.335562 12.3304859,147.918364 13.4161901,149.271217 C13.4584437,150.198834 13.5980915,151.118419 13.8683028,152.018771 C15.5415423,157.600532 21.1359085,160.354427 26.1809789,162.497519 C26.6753451,162.708869 27.1633732,162.911765 27.6429507,163.112548 C28.9612606,163.663961 30.3556268,161.785268 29.5337958,160.652219 C29.3183028,160.354427 29.1091479,160.050082 28.9105563,159.741511 C26.5443592,156.076697 25.4183028,151.693292 26.056331,147.326795 C26.728162,142.708791 29.4492887,138.887577 32.1514014,135.22065 C34.8049225,131.615014 37.6549225,127.935405 38.8422465,123.537205 C40.156331,118.678262 38.9605563,113.834114 36.9323873,109.361941 C35.0753451,105.269566 32.6016127,101.497597 30.5271761,97.5178708 C31.2374577,98.2265284 31.9703451,98.9119374 32.7254155,99.5730411 C33.5745,100.316571 34.4468239,101.167468 35.4530915,101.691616 C36.1971761,102.079022 36.9425282,101.151616 36.3533028,100.52454 C35.5787958,99.7006967 34.5877394,99.0641096 33.727669,98.3288219 C32.9020352,97.6231233 32.1002746,96.8891037 31.3183732,96.1352172 C30.3556268,95.2071781 29.4397817,94.2353894 28.5566831,93.2342231 C27.849993,91.4333072 27.2677394,89.5839922 26.7936549,87.7069902 C26.1492887,85.1665597 25.5535141,82.4633894 25.599993,79.8299648 C25.6464718,77.128908 27.0492887,75.2373229 28.9168944,73.4239374 C29.7078803,72.6561018 30.5064718,71.8973542 31.3035845,71.1371272 C33.001331,69.8903718 34.6027394,68.4975734 36.1583028,67.1085793 C38.9301338,64.633456 41.6111197,62.0171507 44.1714718,59.3243366 C44.8583028,58.6019413 45.5394296,57.8715147 46.2121056,57.1326341 C48.5624577,54.7198591 50.804007,52.2005636 52.9168944,49.5941918 C55.0168944,48.8291037 57.0345,47.8167358 58.9274577,46.6247202 C58.1035141,47.4595538 57.2711197,48.28382 56.4429507,49.1144266 C54.5985845,50.9658552 52.6825986,52.8257378 50.5443592,54.3345675 C50.3246408,54.4911781 50.4577394,54.822998 50.7283732,54.7701605 C53.4471761,54.2269902 55.990838,53.322411 58.3654859,51.881002 C60.7802746,50.4142309 62.9077394,48.4211977 64.8936549,46.4218239 C66.0175986,45.9145832 67.1016127,45.2615108 68.0922465,44.6190059 C68.1450634,44.5851898 68.1978803,44.5492603 68.2506972,44.5152329 C67.2746408,47.6096125 65.8424577,51.1138004 62.7894296,52.2170489 C62.6901338,52.2529785 62.6964718,52.4178317 62.8147817,52.4114912 C65.3867535,52.2605871 67.4537958,51.1030215 69.0856268,49.4158121 C70.3980211,48.4710763 71.6504155,47.46991 72.8455563,46.3799765 C74.0033028,45.3240705 75.099993,44.1916556 76.1415423,43.0190841 C74.6859085,45.9038043 73.0553451,48.7244853 71.4471761,51.5132524 C71.362669,51.6611977 71.5401338,51.8619804 71.6922465,51.7584188 C75.0873169,49.4589276 77.662669,46.4915695 79.769007,42.9829432 C80.079993,42.4664031 80.3768239,41.941409 80.6662606,41.4123992 C80.4478099,42.2402583 80.2092887,43.0628337 79.9538662,43.881182 C79.4914014,45.3625362 79.0361197,46.847272 78.5728099,48.3277808 C78.3230915,49.1260509 78.0186549,49.9061448 77.6846408,50.6729237 C77.4454859,51.221589 77.1323873,51.7691977 77.0837958,52.3709119 C77.0806268,52.4108571 77.1241479,52.4370646 77.159007,52.4283992 C78.5128099,52.089816 79.7734437,50.5452681 80.7380915,49.5884853 C81.2753451,49.0556712 81.7785845,48.470865 82.2414718,47.8541448 C82.3274577,51.4063092 82.3866127,54.9588963 82.3084437,58.5216282 C82.1628803,65.0650333 81.7403451,71.6063249 81.1992887,78.1283836 C80.7218239,83.8942309 80.369007,89.9451898 77.1535141,94.9563053 C74.6647817,98.8345832 70.6295704,101.518521 66.2457676,102.818536 C65.8591479,102.934779 65.4704155,103.038341 65.0795704,103.131335 C58.7330915,104.638262 52.4119648,102.930552 46.8006972,99.9124697 C45.1147817,99.0057769 43.6739366,101.465683 45.3006972,102.478051 C51.3894296,106.269886 59.1070352,107.561237 65.9985845,105.86198 C65.7811901,114.005096 69.7929507,121.73016 73.7837958,128.637088 C76.0168944,132.502685 78.2521056,136.34292 79.8304859,140.533996 C81.1697113,144.093135 82.0802746,147.785425 82.3866127,151.583389 C82.749993,156.059789 82.3929507,160.56155 81.7675986,164.999906 C81.7337958,165.240634 81.699993,165.483898 81.6640775,165.724626 C81.5246408,166.678027 82.3802746,167.47672 83.3077394,166.988712 C87.4084437,164.832939 89.1767535,160.237973 90.2521056,155.990043 C91.2577394,152.010317 91.9401338,147.952391 92.3204155,143.86699 C92.878162,145.407734 93.3302746,146.986521 93.6809789,148.596798 C93.7297817,148.827382 93.7760493,149.057753 93.8225282,149.288125 C94.0887254,150.634427 96.1253451,150.539319 96.4506972,149.288125 C96.5098521,149.06198 96.5668944,148.835836 96.6197113,148.607577 C98.2992887,141.812665 98.7514014,134.72609 97.8640775,127.778795 C97.3971761,124.124759 96.6175986,120.519123 95.4598521,117.021276" id="ðŸ–-Ink" fill="#000000"></path>
                    </g>
                    <g id="face/Smiling" transform="translate(112.183099, 77.354207)" fill="#000000" fill-rule="evenodd">
                        <path d="M30.968993,50.9198978 C29.548794,50.3403012 28.2816173,49.3734958 27.3551889,48.1384646 C27.0331038,47.7091169 26.9495926,47.2557326 27.017159,46.8410547 C27.0931327,46.3747786 27.3688808,45.9521824 27.7449394,45.6687178 C28.1221628,45.3843752 28.5940214,45.2441445 29.0502103,45.3156301 C29.4466117,45.3777469 29.8412104,45.5948709 30.1535058,46.0451781 L30.2187521,46.1352289 C30.7695298,46.8806513 31.4872438,47.4922614 32.3050288,47.8864795 C33.0932406,48.2664417 33.9747757,48.4437847 34.8870208,48.3406561 C36.6244504,48.1443157 37.8219743,47.2043274 39.0948115,45.9278391 C39.2525834,45.7666792 39.4104563,45.6004672 39.5690946,45.4315797 C39.6692778,45.278484 39.8083069,45.1800892 39.962667,45.1284632 C40.1340565,45.0711416 40.327938,45.0743848 40.5055187,45.1363808 C40.6767961,45.1961763 40.8299095,45.309486 40.9325762,45.4602937 C41.0301525,45.6036243 41.0854754,45.7806897 41.0675245,45.9843589 C40.9510195,47.3072301 40.2596776,48.4878363 39.2776553,49.4148615 C38.1869942,50.4444414 36.7412431,51.1567117 35.3801317,51.4065272 C33.8805866,51.6817086 32.3525901,51.4845569 30.968993,50.9198978 L30.968993,50.9198978 Z M36.0875289,30.5120405 C37.6828906,31.482148 40.1137318,33.7442494 38.3974899,36.149264 C36.3773089,38.2698449 33.4687045,35.8384541 32.0353946,34.7388307 C30.7063626,33.8866164 29.2131206,36.0784478 30.4461973,37.0735516 C40.8033244,44.7445605 45.006466,30.7657101 36.8944406,29.3714319 C36.0012775,29.2177885 35.6695544,30.2119271 36.0875289,30.5120405 Z M17.5274577,21.5886716 C17.7037243,19.3998697 21.0359789,18.9028321 21.3674577,21.0687499 C21.6642887,23.0089456 21.3148521,24.7912626 20.4412606,26.5380728 C19.6065423,28.2068947 17.5085456,27.4283107 17.3498837,25.9087021 C17.1372039,23.8717299 17.4178099,22.9502317 17.5274577,21.5886716 Z M42.8930282,20.6196517 C43.3576056,20.0109628 44.0283803,19.5954481 44.8320423,19.8302583 C47.3429577,20.5642779 46.6028873,24.1303914 45.7210563,25.8662114 C45.2419014,26.8088337 43.6930986,27.0478708 42.993169,26.2178982 C41.8523239,24.864411 41.3059859,22.1614521 42.756338,20.8282544 C42.7956338,20.7593542 42.8393662,20.68982 42.8930282,20.6196517 Z M20.4058944,12.0111429 L20.802522,11.9416942 C22.0295218,11.7294045 23.5551549,11.5254176 24.4231479,12.5122544 C24.8835,13.0355577 25.0419507,14.0081918 24.4231479,14.509092 C23.3346972,15.3904227 22.1313169,15.0488806 20.8269507,15.1234873 C19.7520211,15.1852016 18.7189225,15.3631585 17.6835,15.6592603 C15.4119507,16.3087397 13.5610352,17.4944149 11.6209648,18.7963327 C11.3663873,18.9671037 11.1065282,18.6414129 11.228007,18.4032211 C12.3479366,16.208771 14.5182887,14.4061644 16.6922324,13.3073542 C17.8525141,12.7208571 19.1222324,12.2343288 20.4058944,12.0111429 Z M40.6041287,11.0281289 L40.9077055,11.0902829 C44.2113469,11.7811043 48.5035506,13.1610768 50.0679842,16.4073021 C50.1275964,16.8663298 50.0646105,16.9647086 50.0133917,17.0289838 L49.9963385,17.0503723 C49.9541341,17.1052595 49.9204583,17.1809212 49.7215736,17.2433957 C49.6663832,17.2302408 49.6106433,17.216308 49.5543131,17.2015401 C48.8372041,17.0135386 48.2698321,16.7545401 47.720556,16.4857982 L47.1250012,16.192275 C46.4340388,15.8533498 45.7369757,15.5267598 44.9982488,15.2856588 C43.4217423,14.7712438 41.8001698,14.4088706 40.1534741,14.2153715 C39.7965654,14.1734678 39.4528848,14.0529641 39.1817455,13.8464404 C38.92438,13.6504079 38.7277692,13.3789964 38.6381257,13.0182314 C38.5219478,12.5513438 38.5553348,12.1978716 38.8057421,11.7766707 C38.9940329,11.4603578 39.263447,11.2411116 39.5728025,11.115213 C39.888177,10.9868648 40.2472278,10.9566068 40.6041287,11.0281289 Z" id="ðŸ–-Ink"></path>
                    </g>
                    <g id="facial-hair/*-None" transform="translate(104.577451, 109.479380)"></g>
                    <g id="accessories/*-None" transform="translate(88.521127, 88.978474)"></g>
                </g>
            </g>
        </g>
    </g>
</svg>